<svg width="47" height="32" viewBox="0 0 47 32" fill="none" xmlns="http://www.w3.org/2000/svg">
<rect x="0.5" y="0.5" width="45.6667" height="31" rx="3.5" fill="white" stroke="#D9D9D9"/>
<path fill-rule="evenodd" clip-rule="evenodd" d="M20.1792 16.6256H18.7007V16.0454C18.7007 15.2907 19.1318 15.0748 19.5037 15.0748C19.9141 15.0748 20.2338 15.2569 20.2338 15.2569L20.7372 14.1065C20.7372 14.1065 20.2269 13.7729 19.2993 13.7729C18.2565 13.7729 17.0699 14.3608 17.0699 16.206V16.6256H14.5946V16.0454C14.5946 15.2907 15.0257 15.0748 15.3969 15.0748C15.6082 15.0748 15.8926 15.124 16.1277 15.2569L16.6311 14.1065C16.3306 13.9297 15.848 13.7729 15.1932 13.7729C14.1504 13.7729 12.9638 14.3608 12.9638 16.206V16.6256H12.0171V17.8844H12.9638V22.3317H14.5946V17.8844H17.0699V22.3317H18.7007V17.8844H20.1792V16.6256ZM24.1519 16.6255V22.3315H25.7842V19.5826C25.7842 18.2754 26.575 17.8919 27.1267 17.8919C27.3419 17.8919 27.6324 17.9542 27.8245 18.0979L28.1219 16.5894C27.8699 16.4818 27.6063 16.4579 27.3903 16.4579C26.5511 16.4579 26.024 16.8299 25.6758 17.5846V16.6255H24.1519ZM8.2732 21.3079C7.84438 21.3079 7.63074 21.0974 7.63074 20.7492C7.63074 20.1052 8.35159 19.8847 9.66725 19.7456C9.66725 20.6071 9.08473 21.3079 8.2732 21.3079ZM8.84035 16.458C7.90048 16.458 6.81845 16.9014 6.23132 17.3694L6.76773 18.4983C7.23881 18.0672 8.00039 17.6991 8.68742 17.6991C9.33987 17.6991 9.7003 17.9173 9.7003 18.3561C9.7003 18.6528 9.4613 18.8019 9.00942 18.8603C7.32335 19.0801 6 19.545 6 20.8453C6 21.8758 6.73391 22.4999 7.8805 22.4999C8.69818 22.4999 9.42671 22.0449 9.7733 21.4447V22.3316H11.298V18.6159C11.298 17.0812 10.2313 16.458 8.84035 16.458ZM33.8443 17.4604C34.1801 16.9685 34.8249 16.4582 35.6879 16.4582C36.7307 16.4582 37.5938 17.1053 37.5938 18.3879V22.3318H35.963V18.9036C35.963 18.1482 35.5081 17.8346 35.0769 17.8346C34.5375 17.8346 33.998 18.328 33.998 19.3947V22.3318H32.3672V18.9151C32.3672 18.1366 31.9384 17.8346 31.4719 17.8346C30.9563 17.8346 30.4045 18.3395 30.4045 19.3947V22.3318H28.7715V16.6258H30.3446V17.4888C30.6204 16.9378 31.2176 16.4582 32.0806 16.4582C32.8714 16.4582 33.5323 16.8248 33.8443 17.4604ZM22.7821 22.3319H21.1529V16.6258H22.7821V22.3319Z" fill="#060809"/>
<path fill-rule="evenodd" clip-rule="evenodd" d="M30.6577 8.6665C26.2527 8.6665 22.3265 11.7243 21.2122 15.656H22.8091C23.7397 12.728 26.899 10.1581 30.6577 10.1581C35.2264 10.1581 39.1749 13.6364 39.1749 19.0512C39.1749 20.2669 39.0174 21.3628 38.7192 22.3311H40.2685L40.2839 22.2781C40.5375 21.279 40.6666 20.1939 40.6666 19.0512C40.6666 13.0123 36.2662 8.6665 30.6577 8.6665Z" fill="#0FA0EA"/>
</svg>
