<svg width="47" height="32" viewBox="0 0 47 32" fill="none" xmlns="http://www.w3.org/2000/svg">
<rect x="0.5" y="0.5" width="45.6667" height="31" rx="3.5" fill="white" stroke="#D9D9D9"/>
<path d="M41.9912 14.0971L42 14.0874H40.6051L39.7243 17.1408H39.6775L38.6662 14.0874H37.0085L39.003 19.1265L38.1698 20.6625V20.6995H39.4712L41.9912 14.0971Z" fill="black"/>
<path d="M26.5274 14.0874H25.0479V19.108H26.5274V14.0874Z" fill="black"/>
<path d="M36.7175 17.8525V15.7549C36.7175 14.6122 36.043 13.9844 34.8536 13.9844C34.0944 13.9844 33.5706 14.1158 32.6148 14.4058L32.8767 15.5583C33.7479 15.165 34.1314 14.9966 34.5344 14.9966C35.0211 14.9966 35.2371 15.3431 35.2371 15.8775V15.9145C33.5415 16.2328 33.0169 16.4109 32.6898 16.7389C32.4464 16.9823 32.3433 17.3288 32.3433 17.7317C32.3433 18.6963 33.0927 19.2113 33.7946 19.2113C34.3192 19.2113 34.7407 19.0146 35.312 18.5835L35.4152 19.1081H36.8948L36.7175 17.8525ZM35.238 17.8904C34.8447 18.1056 34.6199 18.1902 34.358 18.1902C34.0018 18.1902 33.777 17.9557 33.777 17.5818C33.777 17.4416 33.8052 17.3006 33.9172 17.1886C34.0953 17.0105 34.4418 16.8791 35.238 16.6922V17.8904Z" fill="black"/>
<path d="M30.2087 13.9844C29.6655 13.9844 29.2441 14.1907 28.7662 14.584V14.0875H27.2866V20.6996H28.7662V19.0605C29.0474 19.1354 29.3093 19.1734 29.6276 19.1734C30.9484 19.1734 32.1379 18.199 32.1379 16.4664C32.1379 14.912 31.2764 13.9844 30.2087 13.9844ZM29.2714 18.2458C29.103 18.2458 28.9434 18.2273 28.7653 18.1708V15.4551C29.0748 15.24 29.3269 15.1368 29.6452 15.1368C30.1981 15.1368 30.6381 15.5768 30.6381 16.5141C30.639 17.7123 29.9927 18.2458 29.2714 18.2458Z" fill="black"/>
<path d="M12.5062 11.5015H6.16216C5.33598 11.5015 4.66675 12.1769 4.66675 13.0092V19.4071C4.66675 20.2394 5.33598 20.9148 6.16216 20.9148H12.5062C13.3324 20.9148 14.0007 20.2394 14.0007 19.4071V13.0092C14.0016 12.176 13.3324 11.5015 12.5062 11.5015Z" fill="#1677FF"/>
<path d="M12.3519 17.4125C11.9789 17.2864 11.4772 17.0933 10.9191 16.8896C11.2541 16.3015 11.5222 15.6323 11.6985 14.9049H9.85835V14.2365H12.1121V13.8635H9.85835V12.749H8.93871C8.77735 12.749 8.77735 12.9095 8.77735 12.9095V13.8626H6.49808V14.2356H8.77735V14.904H6.89486V15.2769H10.5452C10.4121 15.7407 10.2322 16.1772 10.0197 16.5731C8.83555 16.179 7.57114 15.8598 6.77759 16.0564C6.26971 16.1825 5.94259 16.4073 5.75037 16.6436C4.86864 17.7255 5.50084 19.3691 7.36306 19.3691C8.46434 19.3691 9.52506 18.7501 10.3468 17.7299C11.5733 18.3242 14.0007 19.3452 14.0007 19.3452V17.8904C14.0016 17.8904 13.6965 17.8657 12.3519 17.4125ZM7.18936 18.7404C5.73715 18.7404 5.30774 17.5871 6.02547 16.9558C6.2653 16.7424 6.70264 16.6383 6.93542 16.6154C7.79775 16.5299 8.5966 16.8614 9.53917 17.3252C8.87699 18.1964 8.03317 18.7404 7.18936 18.7404Z" fill="white"/>
<path d="M19.9621 12.5049H17.9764L15.7571 19.1082H17.1246L17.4994 17.8155H19.8501L20.2063 19.1082H21.9574L19.9621 12.5049ZM17.808 16.7381L18.688 13.6943H18.725L19.5582 16.7381H17.808Z" fill="black"/>
<path d="M24.0357 12.2705H22.5562V19.1074H24.0357V12.2705Z" fill="black"/>
<path d="M24.9351 12.8797C24.9351 13.3664 25.2913 13.6944 25.7877 13.6944C26.2841 13.6944 26.6403 13.3664 26.6403 12.8797C26.6403 12.4018 26.2841 12.0649 25.7877 12.0649C25.2913 12.0649 24.9351 12.4018 24.9351 12.8797Z" fill="#1677FF"/>
</svg>
