<svg width="47" height="32" viewBox="0 0 47 32" fill="none" xmlns="http://www.w3.org/2000/svg">
<rect x="0.5" y="0.5" width="45.6667" height="31" rx="3.5" fill="white" stroke="#D9D9D9"/>
<path fill-rule="evenodd" clip-rule="evenodd" d="M28.139 22.4597C28.4017 21.7926 28.9864 20.2978 28.7084 19.9355H28.7104C28.4336 19.5725 26.8798 19.763 26.1809 19.8487L26.1794 19.8489C25.9668 19.875 25.9341 19.686 26.1252 19.5493C27.3662 18.6588 29.3994 18.9136 29.6355 19.2142C29.8716 19.5148 29.5711 21.5964 28.4089 22.5902C28.23 22.7426 28.0593 22.6612 28.139 22.4597ZM19.7885 23.4889C22.4912 23.4889 25.6386 22.6173 27.8068 20.9836V20.9867C28.1656 20.7111 27.8579 20.3061 27.4919 20.4648C25.1253 21.4842 22.5849 22.0163 20.0164 22.0306C16.453 22.0306 13.0061 21.0326 10.2175 19.376C9.97317 19.2309 9.79121 19.4866 9.99566 19.6735C12.6803 22.1471 16.1727 23.5078 19.7885 23.4889Z" fill="#FF9900"/>
<path fill-rule="evenodd" clip-rule="evenodd" d="M37.4614 18.5975H38.6125H38.6135C38.7339 18.5998 38.8339 18.5032 38.8384 18.3803V15.1223C38.8384 14.7131 38.8598 14.3436 39.0213 13.974C39.1322 13.6929 39.3934 13.5036 39.6899 13.4896C40.4261 13.4896 40.4191 14.3136 40.4135 14.9608C40.413 15.0154 40.4126 15.0687 40.4126 15.1202V18.4075C40.4268 18.5129 40.5129 18.5929 40.617 18.5975H41.7783C41.8884 18.5998 41.9832 18.5186 42.0001 18.4075V14.5983C42.0001 14.0126 42.0001 13.1974 41.6985 12.713C41.3724 12.191 40.8675 12 40.3502 12C39.5529 12 39.1001 12.3946 38.777 13.2224H38.7545V12.2965C38.7312 12.1997 38.6477 12.1306 38.5501 12.1274H37.4788C37.3656 12.1245 37.2692 12.2107 37.257 12.3257V18.3803C37.2585 18.4964 37.3479 18.5914 37.4614 18.5975ZM36.3779 15.422C36.3779 13.5116 35.4508 12.0084 33.7365 12.0084C32.0662 12.0084 31.1391 13.4866 31.1391 15.3583C31.1391 17.23 32.055 18.7332 33.7365 18.7332C35.3557 18.7332 36.3779 17.2686 36.3779 15.422ZM32.8421 15.1672C32.8421 14.4281 32.8962 13.2444 33.7478 13.2444C34.1137 13.2444 34.3723 13.4124 34.5021 13.83C34.6534 14.3133 34.6749 14.925 34.6749 15.4345C34.6749 16.2111 34.6412 17.4847 33.7365 17.4847C32.8417 17.4847 32.8419 15.9406 32.8421 15.1917L32.8421 15.1672ZM11.2427 18.61H12.3967H12.3978C12.4557 18.6113 12.5118 18.5891 12.5536 18.5482C12.5954 18.5072 12.6195 18.4509 12.6206 18.3918V15.1839L12.6206 15.1336C12.6201 14.4361 12.6195 13.5136 13.4179 13.5136C14.1561 13.5136 14.1447 14.3242 14.1355 14.9787C14.1345 15.0493 14.1335 15.1181 14.1335 15.1839V18.3928C14.1355 18.5087 14.2246 18.6034 14.3379 18.61H15.4951C15.5528 18.6111 15.6087 18.5887 15.6503 18.5478C15.6919 18.5069 15.7158 18.4507 15.7169 18.3918V15.1839L15.7168 15.1076C15.7161 14.7677 15.7152 14.309 15.8253 14.0241C15.9375 13.7328 16.2089 13.5378 16.5153 13.5282C16.8495 13.5282 17.1081 13.6431 17.194 14.0502C17.2378 14.2461 17.2322 14.7004 17.2284 15.0016L17.2284 15.0018C17.2275 15.0728 17.2267 15.1353 17.2267 15.1839V18.3928C17.2282 18.5089 17.3176 18.6039 17.4312 18.61H18.5852C18.6432 18.6113 18.6993 18.5891 18.7411 18.5482C18.7829 18.5072 18.807 18.4509 18.8081 18.3918V14.5721C18.8081 14.479 18.8097 14.3839 18.8113 14.2877V14.2877V14.2877V14.2876V14.2876C18.8207 13.7173 18.8308 13.1102 18.5168 12.6743C18.1361 12.1799 17.524 11.9335 16.9154 12.0298C16.3067 12.126 15.7963 12.55 15.5799 13.1388C15.2559 12.3737 14.7928 12.0177 14.0814 12.0177C13.3699 12.0177 12.8414 12.3737 12.5613 13.1388H12.5399V12.3486C12.5338 12.236 12.4457 12.146 12.3354 12.1398H11.259C11.1402 12.1386 11.0421 12.2346 11.0382 12.3559V18.4105C11.0487 18.5195 11.1356 18.6043 11.2427 18.61ZM9.23401 18.656C9.158 18.7233 9.04875 18.7346 8.96108 18.6842C8.63401 18.4063 8.5354 18.2561 8.38397 18.0254C8.35792 17.9857 8.33031 17.9436 8.2997 17.8981C7.66491 18.5579 7.21616 18.7552 6.39532 18.7552C5.42319 18.7552 4.66675 18.1424 4.66675 16.9168C4.66675 15.9596 5.17786 15.3092 5.89341 14.9898C6.42178 14.753 7.12677 14.6795 7.73626 14.616H7.73626L7.7363 14.616L7.73634 14.616L7.73641 14.616L7.73648 14.616L7.73659 14.616C7.84981 14.6042 7.95972 14.5927 8.06459 14.5806V14.4282C8.06459 14.3991 8.06482 14.3695 8.06506 14.3395L8.06506 14.3394C8.06708 14.0795 8.06933 13.7902 7.92455 13.5722C7.78349 13.3551 7.51566 13.2663 7.27647 13.2663C6.83589 13.2663 6.44336 13.497 6.34727 13.9741C6.33509 14.0854 6.25124 14.1744 6.14283 14.1912L5.0327 14.067C4.97731 14.0589 4.92758 14.028 4.89513 13.9814C4.86268 13.9348 4.85033 13.8767 4.86097 13.8206C5.11755 12.4343 6.3442 12.0157 7.44309 12.0157C8.00531 12.0157 8.73926 12.1681 9.18085 12.6024C9.69925 13.098 9.69605 13.7469 9.69254 14.456C9.69225 14.5145 9.69196 14.5735 9.69196 14.6328V16.469C9.69196 16.9635 9.87163 17.2095 10.0609 17.4687C10.0834 17.4994 10.106 17.5304 10.1284 17.562C10.202 17.6664 10.2184 17.7969 10.1284 17.8751C9.89232 18.0766 9.47321 18.4483 9.24321 18.6581L9.23401 18.656ZM8.06967 15.781L8.0697 15.8382C8.07011 16.2724 8.07046 16.6406 7.85398 17.0337C7.66998 17.3657 7.37865 17.5703 7.05359 17.5703C6.61097 17.5703 6.35235 17.2258 6.35235 16.7143C6.35235 15.71 7.23452 15.5274 8.06967 15.5274V15.781ZM25.1959 17.4644C25.2184 17.4952 25.241 17.5261 25.2634 17.5577C25.3411 17.6662 25.3575 17.7936 25.2583 17.8656C25.0222 18.0671 24.6031 18.4398 24.3731 18.6485C24.2966 18.7149 24.1877 18.7258 24.1001 18.6757C23.7717 18.3966 23.6744 18.2486 23.5207 18.0149C23.4951 17.9759 23.4679 17.9344 23.4377 17.8896C22.804 18.5494 22.3521 18.7467 21.5344 18.7467C20.5622 18.7467 19.8058 18.1339 19.8058 16.9094C19.8058 15.9511 20.3138 15.3008 21.0376 14.9813C21.5671 14.7436 22.276 14.6705 22.8873 14.6074C22.9982 14.596 23.1059 14.5849 23.2088 14.5732V14.4239C23.2088 14.3949 23.209 14.3654 23.2092 14.3355C23.2112 14.0756 23.2135 13.7861 23.0677 13.5689C22.9307 13.3518 22.6578 13.262 22.4196 13.262C21.979 13.262 21.5885 13.4927 21.4914 13.9698C21.4789 14.0809 21.3952 14.1698 21.287 14.1869L20.1677 14.0637C20.1119 14.0559 20.0617 14.0249 20.029 13.9781C19.9963 13.9313 19.984 13.8727 19.9949 13.8163C20.2525 12.429 21.4792 12.0114 22.578 12.0114C23.1392 12.0114 23.8732 12.1638 24.3158 12.5981C24.8353 13.0912 24.8316 13.735 24.8276 14.4405L24.8276 14.441C24.8273 14.5031 24.8269 14.5656 24.8269 14.6285V16.4657C24.8269 16.9593 25.0065 17.2052 25.1957 17.4642L25.1959 17.4644ZM22.1947 17.564C22.5188 17.564 22.8111 17.3594 22.9941 17.0284C23.2113 16.6332 23.2111 16.2632 23.2108 15.8236L23.2108 15.7768V15.5221C22.3757 15.5221 21.4935 15.7037 21.4935 16.709C21.4935 17.2195 21.7521 17.564 22.1947 17.564ZM26.2406 12.3351V13.1974C26.24 13.2565 26.2632 13.3133 26.3047 13.3546C26.3462 13.3958 26.4025 13.4178 26.4604 13.4156H28.4476L26.169 16.756C26.065 16.9352 26.0159 17.1421 26.028 17.35V18.2321C26.028 18.3595 26.166 18.5046 26.2978 18.4325C27.5545 17.7671 29.049 17.7644 30.308 18.4252C30.4521 18.5014 30.5881 18.3543 30.5881 18.2269V17.2999C30.5842 17.1582 30.5062 17.0294 30.3836 16.9627C29.7202 16.5817 28.9484 16.47 28.2186 16.4878L30.1853 13.6212C30.3683 13.3644 30.4705 13.2016 30.4705 13.0773V12.3351C30.4711 12.2762 30.4481 12.2195 30.4068 12.1783C30.3655 12.1371 30.3095 12.1149 30.2518 12.1169H26.4563C26.3985 12.1136 26.3421 12.1355 26.3009 12.1771C26.2598 12.2186 26.2379 12.2761 26.2406 12.3351Z" fill="black"/>
</svg>
