<svg width="47" height="32" viewBox="0 0 47 32" fill="none" xmlns="http://www.w3.org/2000/svg">
<rect x="0.5" y="0.5" width="45.6667" height="31" rx="3.5" fill="#1F72CD" stroke="#D9D9D9"/>
<path fill-rule="evenodd" clip-rule="evenodd" d="M8.90811 11.3335L4.66663 20.9958H9.74427L10.3738 19.4552H11.8126L12.4421 20.9958H18.0311V19.82L18.5292 20.9958H21.4203L21.9183 19.7952V20.9958H33.542L34.9554 19.4953L36.2789 20.9958L42.2491 21.0082L37.9942 16.1916L42.2491 11.3335H36.3715L34.9956 12.8063L33.7138 11.3335H21.0687L19.9829 13.8274L18.8716 11.3335H13.8045V12.4693L13.2409 11.3335H8.90811ZM26.2658 12.7056H32.9407L34.9822 14.9757L37.0896 12.7056H39.1311L36.0292 16.1903L39.1311 19.6348H36.997L34.9554 17.3384L32.8373 19.6348H26.2658V12.7056ZM27.9141 15.4068V14.1411V14.1399H32.079L33.8964 16.164L31.9985 18.1993H27.9141V16.8175H31.5555V15.4068H27.9141ZM9.89061 12.7056H12.3657L15.1791 19.2576V12.7056H17.8904L20.0634 17.4034L22.0661 12.7056H24.7639V19.6389H23.1223L23.1089 14.206L20.7157 19.6389H19.2473L16.8406 14.206V19.6389H13.4636L12.8234 18.0845H9.36447L8.72557 19.6376H6.91618L9.89061 12.7056ZM9.95507 16.6476L11.0946 13.8786L12.2329 16.6476H9.95507Z" fill="white"/>
</svg>
