<svg width="47" height="32" viewBox="0 0 47 32" fill="none" xmlns="http://www.w3.org/2000/svg">
<rect x="0.5" y="0.5" width="45.6667" height="31" rx="3.5" fill="white" stroke="#D9D9D9"/>
<path fill-rule="evenodd" clip-rule="evenodd" d="M11.1283 11.9108C11.7551 11.9636 12.3818 11.5936 12.7735 11.1244C13.1587 10.642 13.4133 9.99434 13.348 9.3335C12.7931 9.35993 12.1076 9.70357 11.7159 10.186C11.3568 10.6023 11.05 11.2764 11.1283 11.9108ZM18.5837 20.4224V10.1199H22.4028C24.3744 10.1199 25.7519 11.4945 25.7519 13.5034C25.7519 15.5124 24.3483 16.9001 22.3506 16.9001H20.1636V20.4224H18.5837ZM13.3414 12.0363C12.7893 12.0042 12.2855 12.2044 11.8786 12.3662C11.6167 12.4703 11.3949 12.5584 11.2262 12.5584C11.0369 12.5584 10.806 12.4655 10.5467 12.3613C10.207 12.2247 9.81864 12.0685 9.41135 12.076C8.4778 12.0892 7.60953 12.6245 7.13296 13.477C6.15371 15.1819 6.87835 17.7063 7.82496 19.0941C8.28848 19.7814 8.84339 20.5347 9.57456 20.5083C9.89623 20.496 10.1276 20.3966 10.3671 20.2938L10.3671 20.2938C10.6428 20.1753 10.9292 20.0523 11.3764 20.0523C11.8081 20.0523 12.0819 20.1721 12.3449 20.2872C12.5948 20.3965 12.8349 20.5015 13.1913 20.4951C13.9486 20.4819 14.4251 19.8078 14.8886 19.1205C15.3888 18.3829 15.6087 17.663 15.642 17.5538L15.6459 17.5411C15.6451 17.5403 15.6389 17.5375 15.628 17.5324C15.4608 17.4549 14.1828 16.8627 14.1705 15.2745C14.1582 13.9414 15.1842 13.266 15.3457 13.1597L15.3458 13.1597C15.3556 13.1532 15.3622 13.1488 15.3652 13.1466C14.7124 12.1685 13.6939 12.0628 13.3414 12.0363ZM28.6375 20.5017C29.6298 20.5017 30.5503 19.9928 30.9681 19.1866H31.0007V20.4223H32.4631V15.2942C32.4631 13.8073 31.288 12.8491 29.4796 12.8491C27.8018 12.8491 26.5614 13.8206 26.5157 15.1555H27.9389C28.0564 14.5211 28.6375 14.1047 29.4339 14.1047C30.4001 14.1047 30.942 14.5607 30.942 15.4V15.9683L28.9704 16.0872C27.1359 16.1996 26.1436 16.9595 26.1436 18.2812C26.1436 19.6161 27.1686 20.5017 28.6375 20.5017ZM29.0617 19.2791C28.2196 19.2791 27.6842 18.8694 27.6842 18.2416C27.6842 17.594 28.2 17.2173 29.1858 17.1579L30.9419 17.0455V17.6271C30.9419 18.5919 30.1324 19.2791 29.0617 19.2791ZM37.3136 20.8255C36.6803 22.6296 35.9557 23.2243 34.415 23.2243C34.2975 23.2243 33.9058 23.2111 33.8144 23.1847V21.9489C33.9123 21.9621 34.1539 21.9753 34.2779 21.9753C34.9764 21.9753 35.3681 21.678 35.6097 20.9048L35.7533 20.4488L33.0767 12.9483H34.7284L36.5889 19.0346H36.6216L38.4822 12.9483H40.0881L37.3136 20.8255ZM20.1635 11.468H21.9849C23.3558 11.468 24.1392 12.2081 24.1392 13.51C24.1392 14.8118 23.3558 15.5586 21.9783 15.5586H20.1635V11.468Z" fill="black"/>
</svg>
