<svg width="47" height="32" viewBox="0 0 47 32" fill="none" xmlns="http://www.w3.org/2000/svg">
<rect x="0.5" y="0.5" width="45.6667" height="31" rx="3.5" fill="white" stroke="#D9D9D9"/>
<path fill-rule="evenodd" clip-rule="evenodd" d="M34.1693 16.0863C34.1693 22.0249 29.3554 26.8391 23.417 26.8391C17.4787 26.8391 12.6648 22.0249 12.6648 16.0863C12.6648 10.1477 17.4787 5.3335 23.417 5.3335C29.3554 5.3335 34.1693 10.1477 34.1693 16.0863ZM26.0002 12.0912C27.4959 12.6048 28.59 13.374 28.3754 14.8053C28.2195 15.8534 27.6363 16.3603 26.8615 16.5378C27.9245 17.0891 28.2868 18.1354 27.9502 19.4005C27.311 21.2211 25.7917 21.3743 23.7709 20.9938L23.2802 22.9509L22.0957 22.6564L22.5796 20.7256C22.2725 20.6496 21.9587 20.5683 21.6354 20.4815L21.1494 22.4218L19.9662 22.1273L20.4562 20.1662L18.0703 19.5665L18.6589 18.2152C18.6589 18.2152 19.5322 18.4458 19.5201 18.429C19.8555 18.5117 20.0047 18.2939 20.0634 18.1493L21.3931 12.8375C21.4079 12.5867 21.3208 12.2707 20.841 12.151C20.8592 12.1383 19.9804 11.9379 19.9804 11.9379L20.2956 10.6774L22.6849 11.267L23.1709 9.32804L24.3547 9.62251L23.8789 11.5231C24.1975 11.595 24.5174 11.6683 24.8285 11.7456L25.301 9.85714L26.4855 10.1516L26.0002 12.0912ZM23.1659 15.3256C23.9728 15.5395 25.7286 16.0051 26.0346 14.7845C26.3469 13.5357 24.641 13.1585 23.8058 12.9739C23.7112 12.9529 23.6277 12.9345 23.5596 12.9175L22.9697 15.2746C23.0258 15.2885 23.0917 15.3059 23.1656 15.3255L23.1659 15.3256L23.1659 15.3256ZM22.2517 19.1206C23.2181 19.3752 25.3318 19.932 25.6681 18.587C26.0124 17.2119 23.9631 16.7538 22.9631 16.5303L22.963 16.5303C22.8514 16.5053 22.7528 16.4833 22.6721 16.4632L22.0214 19.061C22.0875 19.0774 22.165 19.0978 22.2517 19.1206Z" fill="#F7931A"/>
</svg>
