<svg width="47" height="32" viewBox="0 0 47 32" fill="none" xmlns="http://www.w3.org/2000/svg">
<rect x="0.5" y="0.5" width="45.6667" height="31" rx="3.5" fill="white" stroke="#D9D9D9"/>
<path fill-rule="evenodd" clip-rule="evenodd" d="M45.7 7H1V12.96H45.7V7ZM26.8267 15.94H1V19.9133H26.8267V15.94Z" fill="#E6E7E9"/>
<path fill-rule="evenodd" clip-rule="evenodd" d="M30.9549 28.0002C36.5026 28.0002 40.9999 23.5029 40.9999 17.9552C40.9999 12.4075 36.5026 7.91016 30.9549 7.91016C25.4072 7.91016 20.9099 12.4075 20.9099 17.9552C20.9099 23.5029 25.4072 28.0002 30.9549 28.0002ZM27.1475 25.8714C27.7874 26.1797 28.4704 26.4128 29.185 26.559L27.1475 25.8714Z" fill="#CDD0D5"/>
<mask id="mask0_72566_349878" style="mask-type:alpha" maskUnits="userSpaceOnUse" x="22" y="9" width="18" height="18">
<path d="M39.7372 17.9551C39.7372 22.8054 35.8052 26.7374 30.9549 26.7374C26.1046 26.7374 22.1726 22.8054 22.1726 17.9551C22.1726 13.1048 26.1046 9.17285 30.9549 9.17285C35.8052 9.17285 39.7372 13.1048 39.7372 17.9551Z" fill="#6C7682"/>
</mask>
<g mask="url(#mask0_72566_349878)">
<path d="M25.5359 22.3415H27.241V13.9058H25.5416L23.4355 15.4199V17.01L25.4343 15.5719H25.5359V22.3415Z" fill="white"/>
<path d="M31.0042 22.5286C31.6403 22.5286 32.1955 22.4214 32.6698 22.2071C33.1441 21.9927 33.513 21.6926 33.7765 21.3068C34.0437 20.921 34.1773 20.4728 34.1773 19.9622V19.9505C34.1773 19.3776 33.9948 18.9178 33.6297 18.5709C33.2645 18.224 32.779 18.0214 32.173 17.9629V17.9278C32.4929 17.8577 32.7809 17.7369 33.0368 17.5654C33.2928 17.3939 33.496 17.1757 33.6466 16.9106C33.7972 16.6456 33.8724 16.3377 33.8724 15.987V15.9753C33.8724 15.5232 33.7539 15.1296 33.5167 14.7944C33.2834 14.4553 32.9502 14.1923 32.5174 14.0052C32.0845 13.8142 31.5763 13.7188 30.9929 13.7188C30.4208 13.7188 29.9183 13.822 29.4854 14.0286C29.0563 14.2312 28.7138 14.5196 28.4578 14.8938C28.2056 15.264 28.0588 15.7025 28.0174 16.2091L28.0118 16.2793H29.5814L29.587 16.2267C29.6096 15.9928 29.6811 15.7902 29.8016 15.6187C29.922 15.4433 30.0839 15.3089 30.2871 15.2153C30.4904 15.1218 30.7257 15.075 30.9929 15.075C31.2602 15.075 31.4879 15.1218 31.6761 15.2153C31.8681 15.305 32.013 15.4355 32.1108 15.607C32.2125 15.7746 32.2633 15.9753 32.2633 16.2091V16.2208C32.2633 16.4469 32.205 16.6476 32.0883 16.823C31.9716 16.9944 31.8078 17.1289 31.597 17.2263C31.3863 17.3238 31.1378 17.3725 30.8518 17.3725H29.9427V18.6294H30.8743C31.3674 18.6294 31.7514 18.7365 32.0262 18.9509C32.3047 19.1652 32.444 19.4751 32.444 19.8804V19.8921C32.444 20.1298 32.3837 20.3403 32.2633 20.5235C32.1466 20.7066 31.9791 20.8508 31.7608 20.9561C31.5462 21.0574 31.294 21.108 31.0042 21.108C30.5638 21.108 30.2062 21.0028 29.9314 20.7924C29.6604 20.5819 29.5061 20.313 29.4685 19.9856L29.4628 19.9213H27.8311L27.8367 19.9973C27.8781 20.5001 28.0325 20.9424 28.2997 21.3243C28.567 21.7024 28.9302 21.9986 29.3894 22.2129C29.8524 22.4234 30.3907 22.5286 31.0042 22.5286Z" fill="white"/>
<path d="M38.0197 22.5578C38.6294 22.5578 39.1658 22.4331 39.6288 22.1837C40.0956 21.9304 40.4588 21.5796 40.7185 21.1314C40.982 20.6832 41.1137 20.1629 41.1137 19.5706V19.5589C41.1137 19.021 41.0008 18.5456 40.775 18.1325C40.5529 17.7154 40.2442 17.3881 39.849 17.1503C39.4575 16.9126 39.0077 16.7937 38.4996 16.7937C38.1081 16.7937 37.7599 16.8756 37.455 17.0393C37.1539 17.2029 36.9224 17.427 36.7606 17.7115H36.6589L36.8622 15.3089H40.6282V13.9058H35.5354L35.1571 18.8983H36.6194C36.6646 18.8086 36.7192 18.7248 36.7832 18.6469C36.8509 18.5651 36.9224 18.493 36.9977 18.4306C37.137 18.3098 37.2932 18.2201 37.4663 18.1617C37.6395 18.0993 37.8277 18.0681 38.0309 18.0681C38.3208 18.0681 38.5767 18.1325 38.7988 18.2611C39.0209 18.3897 39.1941 18.569 39.3183 18.7989C39.4462 19.0288 39.5102 19.2938 39.5102 19.5939V19.6056C39.5102 19.9057 39.4462 20.1727 39.3183 20.4065C39.1941 20.6365 39.0209 20.8177 38.7988 20.9502C38.5767 21.0827 38.3189 21.149 38.0253 21.149C37.7693 21.149 37.5397 21.1003 37.3365 21.0028C37.1332 20.9015 36.9657 20.767 36.834 20.5994C36.706 20.428 36.6213 20.2389 36.5799 20.0324L36.5686 19.9915H35.0216L35.0272 20.0733C35.0611 20.541 35.2041 20.9638 35.4563 21.3419C35.7123 21.716 36.0586 22.0122 36.4952 22.2305C36.9318 22.4487 37.44 22.5578 38.0197 22.5578Z" fill="white"/>
</g>
</svg>
