<svg width="47" height="32" viewBox="0 0 47 32" fill="none" xmlns="http://www.w3.org/2000/svg">
<rect x="0.5" y="0.5" width="45.6667" height="31" rx="3.5" fill="white" stroke="#D9D9D9"/>
<path d="M1 5H45.814V13.4H1V5Z" fill="#E6E7E9"/>
<path fill-rule="evenodd" clip-rule="evenodd" d="M27.029 20.75H23.05V22.85H27.029V20.75ZM32.0026 20.75H28.0237V22.85H32.0026V20.75ZM32.9973 20.75H36.9763V22.85H32.9973V20.75ZM41.9499 20.75H37.971V22.85H41.9499V20.75Z" fill="#E6E7E9"/>
<path d="M13.4688 21.8001C13.4688 24.1197 11.6177 26.0001 9.33436 26.0001C7.05099 26.0001 5.19995 24.1197 5.19995 21.8001C5.19995 19.4805 7.05099 17.6001 9.33436 17.6001C11.6177 17.6001 13.4688 19.4805 13.4688 21.8001Z" fill="#E6E7E9"/>
<path d="M19.9002 21.8001C19.9002 24.1197 18.0491 26.0001 15.7658 26.0001C13.4824 26.0001 11.6313 24.1197 11.6313 21.8001C11.6313 19.4805 13.4824 17.6001 15.7658 17.6001C18.0491 17.6001 19.9002 19.4805 19.9002 21.8001Z" fill="#E6E7E9"/>
</svg>
