<svg width="47" height="32" viewBox="0 0 47 32" fill="none" xmlns="http://www.w3.org/2000/svg">
<rect x="0.5" y="0.5" width="45.6667" height="31" rx="3.5" fill="white" stroke="#D9D9D9"/>
<path d="M25.3934 25.9998C30.5901 26.0249 35.3334 21.7227 35.3334 16.4892C35.3334 10.7665 30.5901 6.81036 25.3934 6.8125H20.9209C15.6622 6.81036 11.3334 10.7676 11.3334 16.4892C11.3334 21.7238 15.6622 26.0249 20.9209 25.9998H25.3934Z" fill="#0079BE"/>
<path d="M20.9422 7.60547C16.1365 7.60707 12.2428 11.5376 12.2412 16.3887C12.2428 21.2393 16.1365 25.1698 20.9422 25.1714C25.7485 25.1698 29.6438 21.2393 29.6443 16.3887C29.6438 11.5376 25.7491 7.60707 20.9422 7.60547ZM15.4273 16.3887C15.4262 15.2671 15.7636 14.1712 16.3953 13.2444C17.027 12.3176 17.9236 11.6028 18.9679 11.1936V21.5833C17.9235 21.1743 17.0268 20.4598 16.3951 19.533C15.7634 18.6062 15.4261 17.5103 15.4273 16.3887ZM22.916 21.5854V11.1931C23.9611 11.6017 24.8585 12.3164 25.4906 13.2435C26.1228 14.1707 26.4602 15.2671 26.4588 16.3893C26.46 17.5113 26.1225 18.6077 25.4903 19.5348C24.8582 20.4619 23.961 21.1766 22.916 21.5854Z" fill="white"/>
<path d="M25.3934 25.9998C30.5901 26.0249 35.3334 21.7227 35.3334 16.4892C35.3334 10.7665 30.5901 6.81036 25.3934 6.8125H20.9209C15.6622 6.81036 11.3334 10.7676 11.3334 16.4892C11.3334 21.7238 15.6622 26.0249 20.9209 25.9998H25.3934Z" fill="#0079BE"/>
<path d="M20.9422 7.60547C16.1365 7.60707 12.2428 11.5376 12.2412 16.3887C12.2428 21.2393 16.1365 25.1698 20.9422 25.1714C25.7485 25.1698 29.6438 21.2393 29.6443 16.3887C29.6438 11.5376 25.7491 7.60707 20.9422 7.60547ZM15.4273 16.3887C15.4262 15.2671 15.7636 14.1712 16.3953 13.2444C17.027 12.3176 17.9236 11.6028 18.9679 11.1936V21.5833C17.9235 21.1743 17.0268 20.4598 16.3951 19.533C15.7634 18.6062 15.4261 17.5103 15.4273 16.3887ZM22.916 21.5854V11.1931C23.9611 11.6017 24.8585 12.3164 25.4906 13.2435C26.1228 14.1707 26.4602 15.2671 26.4588 16.3893C26.46 17.5113 26.1225 18.6077 25.4903 19.5348C24.8582 20.4619 23.961 21.1766 22.916 21.5854Z" fill="white"/>
</svg>
