<svg width="47" height="32" viewBox="0 0 47 32" fill="none" xmlns="http://www.w3.org/2000/svg">
<rect x="0.5" y="0.5" width="45.6667" height="31" rx="3.5" fill="white" stroke="#D9D9D9"/>
<path d="M20 30.6667L45.3333 23V27.6667C45.3333 29.3235 43.9902 30.6667 42.3333 30.6667H20Z" fill="#FD6020"/>
<path fill-rule="evenodd" clip-rule="evenodd" d="M40.5249 12.1478C41.9187 12.1478 42.6852 12.7925 42.6852 14.0103C42.7549 14.9416 42.1277 15.7296 41.2915 15.8729L43.173 18.5234H41.7096L40.1068 15.9445H39.9675V18.5234H38.7828V12.1478H40.5249ZM39.9675 15.0849H40.3159C41.0824 15.0849 41.4309 14.7267 41.4309 14.082C41.4309 13.5089 41.0824 13.1507 40.3159 13.1507H39.9675V15.0849ZM34.6713 18.5234H38.0162V17.4488H35.856V15.7296H37.9466V14.655H35.856V13.2223H38.0162V12.1478H34.6713V18.5234ZM31.187 16.4459L29.5842 12.1478H28.3298L30.9082 18.6667H31.5354L34.1138 12.1478H32.8595L31.187 16.4459ZM17.0407 15.3714C17.0407 17.1623 18.4344 18.6667 20.1766 18.6667C20.734 18.6667 21.2219 18.5234 21.7097 18.3085V16.8758C21.3612 17.3056 20.8734 17.5921 20.3159 17.5921C19.201 17.5921 18.295 16.7325 18.295 15.5863V15.4431C18.2253 14.2969 19.1313 13.294 20.2462 13.2223C20.8037 13.2223 21.3612 13.5089 21.7097 13.9387V12.506C21.2915 12.2194 20.734 12.1478 20.2462 12.1478C18.4344 12.0045 17.0407 13.5089 17.0407 15.3714ZM14.8804 14.5834C14.1835 14.2969 13.9745 14.1536 13.9745 13.7954C14.0442 13.3656 14.3926 13.0074 14.8107 13.0791C15.1591 13.0791 15.5076 13.294 15.7863 13.5805L16.4135 12.7209C15.9257 12.2911 15.2985 12.0045 14.6713 12.0045C13.6957 11.9329 12.8595 12.7209 12.7898 13.7238V13.7954C12.7898 14.6551 13.1382 15.1565 14.2532 15.5147C14.532 15.5863 14.8107 15.7296 15.0895 15.8729C15.2985 16.0161 15.4379 16.231 15.4379 16.5176C15.4379 17.019 15.0198 17.4489 14.6016 17.4489H14.532C13.9745 17.4489 13.4867 17.0907 13.2776 16.5892L12.5111 17.3772C12.9292 18.1652 13.7654 18.595 14.6016 18.595C15.7166 18.6667 16.6226 17.807 16.6922 16.6609V16.446C16.6226 15.5863 16.2741 15.1565 14.8804 14.5834ZM10.8386 18.5234H12.0233V12.1478H10.8386V18.5234ZM5.33337 12.1478H7.07553H7.42396C9.09643 12.2194 10.4205 13.6522 10.3508 15.3714C10.3508 16.3027 9.93267 17.1623 9.23581 17.807C8.60863 18.3085 7.84208 18.595 7.07553 18.5234H5.33337V12.1478ZM6.86647 17.4488C7.42396 17.5205 8.05114 17.3056 8.46926 16.9474C8.88738 16.5176 9.09644 15.9445 9.09644 15.2998C9.09644 14.7267 8.88738 14.1536 8.46926 13.7238C8.05114 13.3656 7.42396 13.1507 6.86647 13.2223H6.51804V17.4488H6.86647Z" fill="black"/>
<path fill-rule="evenodd" clip-rule="evenodd" d="M25.2637 12C23.5215 12 22.0581 13.4327 22.0581 15.2953C22.0581 17.0862 23.4518 18.5905 25.2637 18.6621C27.0755 18.7338 28.4692 17.2294 28.5389 15.3669C28.4692 13.5044 27.0755 12 25.2637 12V12Z" fill="#FD6020"/>
</svg>
