<svg width="47" height="32" viewBox="0 0 47 32" fill="none" xmlns="http://www.w3.org/2000/svg">
<rect x="0.5" y="0.5" width="45.6667" height="31" rx="3.5" fill="white" stroke="#D9D9D9"/>
<path fill-rule="evenodd" clip-rule="evenodd" d="M22.0401 21.0105V16.9825H24.119C24.9709 16.9825 25.6899 16.6971 26.2761 16.1341L26.4168 15.9914C27.4875 14.8258 27.4171 13.0101 26.2761 11.9317C25.7056 11.3608 24.924 11.0516 24.119 11.0675H20.7819V21.0105H22.0401ZM22.0403 15.7615V12.2886H24.1508C24.6042 12.2886 25.0341 12.463 25.3546 12.7802C26.0346 13.4462 26.0502 14.5563 25.3936 15.2461C25.0732 15.587 24.6198 15.7773 24.1508 15.7615H22.0403ZM32.2862 14.7386C31.7469 14.2391 31.0123 13.9854 30.0822 13.9854C28.8865 13.9854 27.9877 14.4294 27.3937 15.3095L28.5035 16.0152C28.9099 15.4126 29.4648 15.1113 30.1682 15.1113C30.6137 15.1113 31.0435 15.2778 31.3796 15.5791C31.7078 15.8645 31.8954 16.2769 31.8954 16.713V17.0063C31.4109 16.7367 30.8013 16.594 30.051 16.594C29.1757 16.594 28.4723 16.8002 27.9486 17.2204C27.425 17.6406 27.1593 18.1957 27.1593 18.9014C27.1436 19.5436 27.4172 20.1541 27.9017 20.5665C28.3941 21.0105 29.0193 21.2325 29.754 21.2325C30.6215 21.2325 31.3093 20.844 31.8329 20.0669H31.8876V21.0105H33.0912V16.816C33.0912 15.9359 32.8255 15.2382 32.2862 14.7386ZM28.8711 19.7577C28.6131 19.5674 28.4568 19.2581 28.4568 18.9251C28.4568 18.5524 28.6288 18.2432 28.9649 17.9974C29.3088 17.7516 29.7387 17.6248 30.2468 17.6248C30.9503 17.6168 31.4975 17.7754 31.8883 18.0926C31.8883 18.6317 31.6773 19.0995 31.263 19.496C30.8878 19.8766 30.3797 20.0907 29.8482 20.0907C29.4964 20.0986 29.1525 19.9797 28.8711 19.7577ZM35.7953 23.9997L40 14.2074H38.6323L36.6863 19.0917H36.6628L34.6699 14.2074H33.3022L36.061 20.5744L34.498 23.9997H35.7953Z" fill="#3C4043"/>
<path d="M17.6961 16.1103C17.6961 15.7218 17.6648 15.3332 17.6023 14.9526H12.2957V17.149H15.3358C15.2108 17.8547 14.8044 18.489 14.2104 18.8854V20.3126H16.0236C17.0865 19.3215 17.6961 17.8547 17.6961 16.1103Z" fill="#4285F4"/>
<path d="M12.2958 21.6923C13.812 21.6923 15.0937 21.1849 16.0238 20.3127L14.2106 18.8855C13.7026 19.2343 13.0539 19.4326 12.2958 19.4326C10.8265 19.4326 9.58387 18.4256 9.13839 17.0776H7.27051V18.5524C8.22399 20.4792 10.17 21.6923 12.2958 21.6923Z" fill="#34A853"/>
<path d="M9.13864 17.0776C8.90414 16.372 8.90414 15.6028 9.13864 14.8892V13.4224H7.27046C6.46535 15.032 6.46535 16.9349 7.27046 18.5445L9.13864 17.0776Z" fill="#FBBC04"/>
<path d="M12.2958 12.5345C13.1008 12.5187 13.8745 12.8279 14.4529 13.3909L16.0628 11.7575C15.039 10.7901 13.6948 10.2589 12.2958 10.2748C10.17 10.2748 8.22399 11.4958 7.27051 13.4226L9.13839 14.8974C9.58387 13.5415 10.8265 12.5345 12.2958 12.5345Z" fill="#EA4335"/>
</svg>
