<svg width="47" height="32" viewBox="0 0 47 32" fill="none" xmlns="http://www.w3.org/2000/svg">
<rect x="0.5" y="0.5" width="45.6667" height="31" rx="3.5" fill="white" stroke="#D9D9D9"/>
<path d="M29.7576 16.3829C30.4425 16.3978 31.1313 16.3526 31.8135 16.4063C32.5043 16.5352 32.6708 17.581 32.0571 17.9235C31.6383 18.1492 31.1408 18.0076 30.6868 18.0474H29.7576V16.3829ZM32.2095 14.4988C32.3616 15.0359 31.8439 15.5182 31.3266 15.4442H29.7576C29.7686 14.9377 29.7361 14.388 29.7736 13.9081C30.4021 13.9258 31.0364 13.872 31.6613 13.9362C31.9298 14.0037 32.1545 14.2244 32.2095 14.4988ZM35.9854 6.53373C36.0146 7.55946 35.9897 8.63941 35.998 9.68596C35.9961 13.9408 36.0021 18.1956 35.9947 22.4507C35.9672 24.0453 34.554 25.4309 32.9704 25.4627C31.3853 25.4691 29.7999 25.4637 28.2146 25.4654V19.033C29.9419 19.0241 31.6701 19.0511 33.3966 19.0195C34.1976 18.9692 35.0749 18.4407 35.1122 17.5593C35.2065 16.674 34.3719 16.0617 33.5795 15.965C33.2749 15.9571 33.2838 15.8762 33.5795 15.841C34.3353 15.6776 34.9288 14.8954 34.7064 14.112C34.5169 13.2881 33.6062 12.9692 32.8488 12.9708C31.3043 12.9603 29.7595 12.9693 28.2149 12.9662C28.2249 11.7654 28.1941 10.5632 28.2315 9.36325C28.3539 7.79742 29.8027 6.50612 31.364 6.53414C32.9047 6.5339 34.4451 6.5339 35.9854 6.53385V6.53373Z" fill="url(#paint0_linear_72566_349824)"/>
<path d="M10.7608 9.52571C10.8003 7.93363 12.2195 6.5594 13.801 6.53613C15.3803 6.53127 16.9598 6.53543 18.539 6.53402C18.5347 11.8608 18.5476 17.1882 18.5325 22.5147C18.4717 24.0874 17.0679 25.4354 15.5036 25.4633C13.9214 25.469 12.3389 25.4641 10.7566 25.4657V18.8164C12.2936 19.1794 13.9053 19.334 15.4732 19.0932C16.4105 18.9424 17.4359 18.4821 17.7532 17.5098C17.9867 16.678 17.8553 15.8027 17.89 14.949V12.9665H15.1766C15.1644 14.2777 15.2015 15.5912 15.1569 16.9007C15.0838 17.7057 14.2866 18.2171 13.5274 18.1898C12.5859 18.1998 10.7202 17.5075 10.7202 17.5075C10.7155 15.0509 10.7475 11.9744 10.7608 9.52595V9.52571Z" fill="url(#paint1_linear_72566_349824)"/>
<path d="M19.551 13.766C19.4082 13.7963 19.5223 13.2795 19.4858 13.0834C19.4955 11.8438 19.4654 10.6029 19.5024 9.36413C19.6244 7.79168 21.0843 6.49716 22.6519 6.53397H27.2685C27.2642 11.8607 27.277 17.1881 27.262 22.5146C27.2011 24.0873 25.7972 25.4353 24.2329 25.4632C22.6506 25.4692 21.0681 25.4642 19.4857 25.4657V18.1804C20.5664 19.0672 22.0352 19.2052 23.3816 19.2076C24.3966 19.2072 25.4057 19.0507 26.3914 18.8167V17.482C25.2806 18.0356 23.9747 18.3873 22.7434 18.0692C21.8844 17.8554 21.2608 17.0252 21.2747 16.1388C21.1752 15.2169 21.7156 14.2436 22.6215 13.9695C23.7463 13.6174 24.9722 13.8867 26.0265 14.3445C26.2524 14.4628 26.4817 14.6095 26.3913 14.2319V13.1829C24.628 12.7633 22.7514 12.609 20.9799 13.0654C20.4671 13.21 19.9675 13.4294 19.551 13.7661V13.766Z" fill="url(#paint2_linear_72566_349824)"/>
<defs>
<linearGradient id="paint0_linear_72566_349824" x1="28.1615" y1="15.5948" x2="35.9489" y2="15.5948" gradientUnits="userSpaceOnUse">
<stop stop-color="#58B03A"/>
<stop offset="1" stop-color="#55B330"/>
</linearGradient>
<linearGradient id="paint1_linear_72566_349824" x1="10.5911" y1="16.1811" x2="18.4114" y2="16.1811" gradientUnits="userSpaceOnUse">
<stop stop-color="#0F6EB6"/>
<stop offset="1" stop-color="#006DBA"/>
</linearGradient>
<linearGradient id="paint2_linear_72566_349824" x1="19.4743" y1="15.7784" x2="27.267" y2="15.7784" gradientUnits="userSpaceOnUse">
<stop stop-color="#DE0D3D"/>
<stop offset="1" stop-color="#E30138"/>
</linearGradient>
</defs>
</svg>
