<svg width="47" height="32" viewBox="0 0 47 32" fill="none" xmlns="http://www.w3.org/2000/svg">
<rect x="0.5" y="0.5" width="45.6667" height="31" rx="3.5" fill="#FEB4C7" stroke="#D9D9D9"/>
<path fill-rule="evenodd" clip-rule="evenodd" d="M7.23214 20.5062H5.33325V12H7.23214V20.5062ZM11.9729 12H10.1152C10.1152 13.5654 9.41514 15.0021 8.19461 15.9421L7.45861 16.5087L10.3103 20.5065H12.655L10.031 16.8279C11.2748 15.5546 11.9729 13.8415 11.9729 12ZM15.0016 20.5038H13.2084V12.0016H15.0016V20.5038ZM20.4197 14.6225V14.9987C19.9358 14.6594 19.3518 14.4599 18.7219 14.4599C17.0547 14.4599 15.7033 15.8494 15.7033 17.5633C15.7033 19.2772 17.0547 20.6666 18.7219 20.6666C19.3518 20.6666 19.9358 20.4672 20.4197 20.1279V20.5038H22.1325V14.6225H20.4197ZM20.4145 17.5635C20.4145 18.3992 19.7196 19.0767 18.8625 19.0767C18.0054 19.0767 17.3105 18.3992 17.3105 17.5635C17.3105 16.7278 18.0054 16.0504 18.8625 16.0504C19.7196 16.0504 20.4145 16.7278 20.4145 17.5635ZM38.4894 14.9987V14.6225H40.2021V20.5038H38.4894V20.1279C38.0055 20.4672 37.4215 20.6666 36.7915 20.6666C35.1243 20.6666 33.7729 19.2772 33.7729 17.5633C33.7729 15.8494 35.1243 14.4599 36.7915 14.4599C37.4215 14.4599 38.0055 14.6594 38.4894 14.9987ZM36.9321 19.0767C37.7893 19.0767 38.4841 18.3992 38.4841 17.5635C38.4841 16.7278 37.7893 16.0504 36.9321 16.0504C36.0749 16.0504 35.3801 16.7278 35.3801 17.5635C35.3801 18.3992 36.0749 19.0767 36.9321 19.0767ZM30.7292 14.4645C30.045 14.4645 29.3975 14.6828 28.9646 15.2853V14.623H27.2592V20.504H28.9855V17.4133C28.9855 16.519 29.5689 16.081 30.2713 16.081C31.0241 16.081 31.4568 16.5433 31.4568 17.4011V20.504H33.1676V16.7639C33.1676 15.3953 32.1091 14.4645 30.7292 14.4645ZM24.7821 14.6225V15.3885C25.1255 14.929 25.7652 14.6229 26.4608 14.6229V16.3342L26.4512 16.3338L26.4512 16.3338C26.4476 16.3336 26.4441 16.3335 26.4404 16.3335C25.7627 16.3335 24.786 16.8314 24.786 17.7579V20.5038H23.0285V14.6225H24.7821ZM40.9455 19.5227C40.9455 18.9124 41.4267 18.4177 42.0203 18.4177C42.6139 18.4177 43.0952 18.9124 43.0952 19.5227C43.0952 20.1329 42.6139 20.6277 42.0203 20.6277C41.4267 20.6277 40.9455 20.1329 40.9455 19.5227Z" fill="#17120F"/>
</svg>
