<svg width="47" height="32" viewBox="0 0 47 32" fill="none" xmlns="http://www.w3.org/2000/svg">
<rect x="0.5" y="0.5" width="45.6667" height="31" rx="3.5" fill="white" stroke="#D9D9D9"/>
<path fill-rule="evenodd" clip-rule="evenodd" d="M23.6666 22.8758C22.0779 24.2468 20.017 25.0745 17.765 25.0745C12.7401 25.0745 8.66663 20.9537 8.66663 15.8705C8.66663 10.7873 12.7401 6.6665 17.765 6.6665C20.017 6.6665 22.0779 7.49417 23.6666 8.86522C25.2554 7.49417 27.3163 6.6665 29.5683 6.6665C34.5932 6.6665 38.6666 10.7873 38.6666 15.8705C38.6666 20.9537 34.5932 25.0745 29.5683 25.0745C27.3163 25.0745 25.2554 24.2468 23.6666 22.8758Z" fill="#ED0006"/>
<path fill-rule="evenodd" clip-rule="evenodd" d="M23.6666 22.8758C25.6229 21.1876 26.8633 18.6756 26.8633 15.8705C26.8633 13.0654 25.6229 10.5534 23.6666 8.86521C25.2554 7.49417 27.3163 6.6665 29.5683 6.6665C34.5932 6.6665 38.6666 10.7873 38.6666 15.8705C38.6666 20.9537 34.5932 25.0745 29.5683 25.0745C27.3163 25.0745 25.2554 24.2468 23.6666 22.8758Z" fill="#F9A000"/>
<path fill-rule="evenodd" clip-rule="evenodd" d="M23.6666 8.86523C25.6229 10.5534 26.8633 13.0654 26.8633 15.8705C26.8633 18.6755 25.6229 21.1875 23.6666 22.8757C21.7104 21.1875 20.47 18.6755 20.47 15.8705C20.47 13.0654 21.7104 10.5534 23.6666 8.86523Z" fill="#FF5E00"/>
</svg>
