<svg width="47" height="32" viewBox="0 0 47 32" fill="none" xmlns="http://www.w3.org/2000/svg">
<rect x="0.5" y="0.5" width="45.6667" height="31" rx="3.5" fill="white" stroke="#D9D9D9"/>
<path fill-rule="evenodd" clip-rule="evenodd" d="M13.2 20.3213H11.1259C10.9839 20.3213 10.8632 20.4244 10.8411 20.5645L10.0022 25.8833C9.9855 25.9882 10.0668 26.0828 10.1732 26.0828H11.1635C11.3054 26.0828 11.4261 25.9797 11.4482 25.8393L11.6745 24.4048C11.6963 24.2643 11.8173 24.1613 11.959 24.1613H12.6156C13.9819 24.1613 14.7704 23.5001 14.9764 22.1899C15.0692 21.6167 14.9804 21.1663 14.7119 20.8508C14.4171 20.5046 13.8942 20.3213 13.2 20.3213ZM13.4393 22.2639C13.3259 23.0082 12.7572 23.0082 12.2074 23.0082H11.8944L12.114 21.6181C12.127 21.5342 12.1998 21.4723 12.2847 21.4723H12.4282C12.8027 21.4723 13.1561 21.4723 13.3387 21.6858C13.4474 21.8132 13.4809 22.0024 13.4393 22.2639ZM19.4002 22.24H18.4069C18.3223 22.24 18.2491 22.3019 18.2361 22.386L18.1922 22.6638L18.1227 22.5631C17.9077 22.251 17.4282 22.1467 16.9496 22.1467C15.8519 22.1467 14.9145 22.978 14.7319 24.1442C14.6371 24.7258 14.7719 25.282 15.1019 25.6699C15.4046 26.0266 15.8378 26.1752 16.353 26.1752C17.2374 26.1752 17.7279 25.6065 17.7279 25.6065L17.6835 25.8826C17.6668 25.9881 17.7481 26.0827 17.8539 26.0827H18.7487C18.891 26.0827 19.011 25.9795 19.0334 25.8392L19.5703 22.4396C19.5873 22.335 19.5063 22.24 19.4002 22.24ZM18.0156 24.1732C17.9197 24.7407 17.4694 25.1216 16.895 25.1216C16.6066 25.1216 16.376 25.0291 16.2281 24.8538C16.0813 24.6798 16.0254 24.4319 16.0722 24.156C16.1617 23.5933 16.6197 23.2 17.1853 23.2C17.4672 23.2 17.6966 23.2936 17.8476 23.4705C17.9989 23.6492 18.059 23.8984 18.0156 24.1732ZM23.692 22.2399H24.6901C24.8299 22.2399 24.9115 22.3967 24.832 22.5113L21.5123 27.3032C21.4586 27.3808 21.37 27.427 21.2754 27.427H20.2785C20.1381 27.427 20.0562 27.269 20.1374 27.154L21.1711 25.6949L20.0717 22.4685C20.0337 22.3564 20.1165 22.2399 20.2358 22.2399H21.2166C21.344 22.2399 21.4564 22.3235 21.4932 22.4455L22.0767 24.3941L23.4534 22.3663C23.5073 22.2872 23.5968 22.2399 23.692 22.2399Z" fill="#253B80"/>
<path fill-rule="evenodd" clip-rule="evenodd" d="M34.5139 25.8831L35.3652 20.467C35.3782 20.383 35.4511 20.3211 35.5357 20.3208H36.494C36.5998 20.3208 36.6811 20.4157 36.6644 20.5207L35.825 25.8391C35.8031 25.9795 35.6824 26.0826 35.5402 26.0826H34.6843C34.5785 26.0826 34.4972 25.988 34.5139 25.8831ZM27.9948 20.3211H25.9202C25.7786 20.3211 25.6579 20.4242 25.6357 20.5643L24.7969 25.8831C24.7802 25.988 24.8614 26.0826 24.9674 26.0826H26.0318C26.1308 26.0826 26.2154 26.0105 26.2308 25.9123L26.4689 24.4046C26.4908 24.2641 26.6117 24.1611 26.7534 24.1611H27.4096C28.7762 24.1611 29.5646 23.4999 29.7708 22.1897C29.8638 21.6165 29.7744 21.1661 29.5061 20.8506C29.2115 20.5044 28.6889 20.3211 27.9948 20.3211ZM28.2341 22.2637C28.1209 23.008 27.5522 23.008 27.0021 23.008H26.6894L26.9093 21.6179C26.9223 21.534 26.9945 21.4721 27.0797 21.4721H27.2231C27.5974 21.4721 27.9511 21.4721 28.1336 21.6856C28.2425 21.813 28.2756 22.0022 28.2341 22.2637ZM34.1944 22.2398H33.2018C33.1165 22.2398 33.044 22.3017 33.0313 22.3858L32.9873 22.6635L32.9176 22.5629C32.7026 22.2508 32.2234 22.1465 31.7448 22.1465C30.6471 22.1465 29.71 22.9778 29.5274 24.144C29.4328 24.7256 29.5671 25.2818 29.8971 25.6697C30.2004 26.0264 30.6329 26.175 31.1482 26.175C32.0325 26.175 32.5229 25.6063 32.5229 25.6063L32.4787 25.8824C32.462 25.9879 32.5433 26.0825 32.6498 26.0825H33.5441C33.6857 26.0825 33.8064 25.9793 33.8286 25.839L34.3657 22.4394C34.3821 22.3348 34.3009 22.2398 34.1944 22.2398ZM32.8099 24.173C32.7146 24.7405 32.2637 25.1214 31.6892 25.1214C31.4014 25.1214 31.1703 25.0289 31.0223 24.8536C30.8755 24.6795 30.8203 24.4317 30.8665 24.1558C30.9565 23.5931 31.4139 23.1998 31.9795 23.1998C32.2616 23.1998 32.4908 23.2934 32.6419 23.4703C32.7938 23.6489 32.8539 23.8982 32.8099 24.173Z" fill="#179BD7"/>
<path d="M20.876 18.4184L21.131 16.7988L20.563 16.7856H17.8507L19.7356 4.83379C19.7414 4.79771 19.7605 4.76407 19.7883 4.74018C19.816 4.71629 19.8517 4.70312 19.8887 4.70312H24.4621C25.9804 4.70312 27.0281 5.01907 27.5752 5.64266C27.8316 5.93521 27.995 6.24091 28.074 6.57733C28.1568 6.93034 28.1584 7.35209 28.0774 7.86647L28.0715 7.90402V8.2336L28.3281 8.37891C28.5441 8.49348 28.7156 8.62464 28.8472 8.77481C29.0667 9.02493 29.2086 9.34283 29.2686 9.71971C29.3305 10.1073 29.31 10.5686 29.2086 11.0908C29.0916 11.6915 28.9024 12.2146 28.6469 12.6427C28.4119 13.0371 28.1125 13.3642 27.7571 13.6178C27.4177 13.8587 27.0145 14.0416 26.5587 14.1586C26.1168 14.2736 25.6133 14.3317 25.0608 14.3317H24.7049C24.4504 14.3317 24.2031 14.4233 24.0092 14.5877C23.8147 14.7554 23.6858 14.9844 23.6464 15.2351L23.6196 15.3809L23.169 18.2355L23.1485 18.3404C23.1432 18.3736 23.1339 18.3902 23.1203 18.4014C23.1081 18.4115 23.0906 18.4184 23.0735 18.4184H20.876Z" fill="#253B80"/>
<path d="M28.571 7.94238C28.5573 8.02965 28.5418 8.11887 28.5242 8.21054C27.921 11.3071 25.8577 12.3768 23.2223 12.3768H21.8806C21.5583 12.3768 21.2867 12.6108 21.2365 12.9287L20.5495 17.2857L20.3549 18.5207C20.3222 18.7294 20.4832 18.9176 20.6937 18.9176H23.0737C23.3555 18.9176 23.5948 18.7128 23.6392 18.4349L23.6626 18.3139L24.1107 15.4704L24.1395 15.3145C24.1833 15.0356 24.4232 14.8308 24.705 14.8308H25.0609C27.3666 14.8308 29.1717 13.8947 29.6992 11.1857C29.9196 10.054 29.8055 9.10914 29.2223 8.44457C29.0459 8.24418 28.827 8.07792 28.571 7.94238Z" fill="#179BD7"/>
<path d="M27.9398 7.6906C27.8477 7.66378 27.7526 7.6394 27.655 7.61746C27.5571 7.59602 27.4566 7.577 27.3533 7.56042C26.9914 7.50191 26.5951 7.47412 26.1704 7.47412H22.5858C22.4975 7.47412 22.4138 7.49411 22.3387 7.53019C22.1733 7.60966 22.0505 7.76618 22.0208 7.95779L21.2581 12.7876L21.2362 12.9285C21.2865 12.6107 21.558 12.3766 21.8803 12.3766H23.222C25.8574 12.3766 27.9209 11.3064 28.5239 8.21035C28.5419 8.11868 28.5571 8.02946 28.5707 7.94219C28.4181 7.86125 28.2528 7.79202 28.0748 7.73301C28.031 7.71839 27.9857 7.70426 27.9398 7.6906Z" fill="#222D65"/>
<path d="M22.0208 7.95789C22.0506 7.76627 22.1735 7.60977 22.3387 7.53078C22.4143 7.49469 22.4977 7.47471 22.5859 7.47471H26.1706C26.5953 7.47471 26.9916 7.5025 27.3533 7.56101C27.4567 7.57758 27.5572 7.5966 27.6552 7.61805C27.7527 7.64 27.8478 7.66438 27.94 7.69118C27.9857 7.70484 28.0311 7.71897 28.0754 7.73312C28.2534 7.79211 28.4187 7.86184 28.5713 7.94229C28.7508 6.79796 28.5699 6.01883 27.9512 5.31331C27.2691 4.53662 26.0379 4.2041 24.4626 4.2041H19.8891C19.5673 4.2041 19.2929 4.43812 19.2431 4.75651L17.3383 16.8311C17.3006 17.07 17.4849 17.2856 17.7258 17.2856H20.5494L21.2583 12.7877L22.0208 7.95789Z" fill="#253B80"/>
</svg>
