<svg width="47" height="32" viewBox="0 0 47 32" fill="none" xmlns="http://www.w3.org/2000/svg">
<rect x="0.5" y="0.5" width="45.6667" height="31" rx="3.5" fill="white" stroke="#D9D9D9"/>
<path d="M41.9091 11.9611L44.2355 16.5805L39.345 21.2021L41.9091 11.9611Z" fill="#008C44"/>
<path d="M40.2987 11.9611L42.6217 16.5805L37.7344 21.2021L40.2987 11.9611Z" fill="#F47920"/>
<path d="M3 19.521L5.31952 11.1643H9.02784C10.1868 11.1643 10.961 11.3478 11.3549 11.7259C11.7459 12.1009 11.8212 12.7131 11.5855 13.5736C11.4429 14.0804 11.2263 14.5059 10.9286 14.8421C10.6333 15.1788 10.2439 15.4451 9.76436 15.641C10.1712 15.7388 10.43 15.933 10.546 16.2242C10.6615 16.5154 10.6481 16.94 10.508 17.4967L10.2259 18.664L10.2251 18.6956C10.1437 19.0224 10.1678 19.1974 10.3004 19.2116L10.2149 19.521H7.70628C7.71478 19.3244 7.73037 19.1486 7.74698 19.001C7.76521 18.8499 7.78768 18.7328 7.80996 18.6524L8.04386 17.8179C8.16172 17.3839 8.16901 17.0812 8.05965 16.9068C7.94928 16.7278 7.70223 16.6397 7.3122 16.6397H6.25794L5.45399 19.521H3ZM6.7796 14.7566H7.90878C8.30448 14.7566 8.5965 14.7001 8.77653 14.5833C8.95737 14.4654 9.09163 14.2663 9.1704 13.9784C9.25202 13.6855 9.23197 13.4814 9.11492 13.3654C8.99807 13.2475 8.71841 13.1902 8.27876 13.1902H7.21439L6.7796 14.7566Z" fill="#1B3281"/>
<path d="M18.47 13.3547L16.76 19.5213H14.6821L14.9375 18.6179C14.5717 18.9772 14.1975 19.2499 13.8202 19.4243C13.446 19.6017 13.0511 19.689 12.6353 19.689C12.2917 19.689 11.9966 19.6266 11.7591 19.5029C11.5187 19.3795 11.3397 19.192 11.2192 18.9447C11.1123 18.7283 11.0657 18.461 11.0839 18.1416C11.1032 17.8273 11.2141 17.2971 11.4199 16.5548L12.3061 13.3547H14.579L13.6947 16.5398C13.5655 17.0059 13.5347 17.3336 13.5977 17.512C13.6633 17.692 13.8384 17.785 14.1228 17.785C14.4091 17.785 14.6499 17.6813 14.8488 17.4697C15.0505 17.2599 15.2062 16.947 15.3232 16.5307L16.2003 13.3547H18.47Z" fill="#1B3281"/>
<path d="M17.6455 19.521L19.9626 11.1643H23.1501C23.8534 11.1643 24.3977 11.2058 24.7859 11.297C25.1733 11.3842 25.4771 11.526 25.7029 11.7259C25.9858 11.9873 26.1591 12.3109 26.2304 12.6991C26.2974 13.0873 26.2577 13.5395 26.1109 14.0705C25.8513 15.0047 25.3963 15.7205 24.7479 16.2207C24.0974 16.7144 23.2926 16.9625 22.3321 16.9625H20.8405L20.1319 19.521H17.6455ZM21.4053 14.9216H22.2068C22.725 14.9216 23.0893 14.8577 23.3028 14.7341C23.5093 14.609 23.6561 14.3866 23.7456 14.0705C23.8352 13.7501 23.8121 13.5262 23.6768 13.401C23.5466 13.2765 23.2139 13.2135 22.6815 13.2135H21.8816L21.4053 14.9216Z" fill="#1B3281"/>
<path d="M28.7844 19.5213L28.8075 18.9357C28.441 19.2101 28.0698 19.4174 27.6966 19.547C27.325 19.6791 26.9293 19.7461 26.5054 19.7461C25.8616 19.7461 25.4127 19.5711 25.1531 19.2325C24.8967 18.8933 24.8546 18.4063 25.0295 17.785C25.197 17.1718 25.4949 16.7204 25.9246 16.4319C26.3519 16.1398 27.0655 15.9309 28.0667 15.7972C28.1937 15.7765 28.3638 15.7599 28.5769 15.7342C29.317 15.6486 29.7326 15.4513 29.8221 15.1295C29.8687 14.9533 29.8403 14.8233 29.7309 14.7435C29.6254 14.6607 29.4282 14.62 29.1435 14.62C28.9071 14.62 28.717 14.669 28.5611 14.7709C28.4053 14.8738 28.2891 15.024 28.2103 15.2354H25.9943C26.1944 14.5412 26.6032 14.0168 27.217 13.666C27.8286 13.3092 28.635 13.1375 29.6337 13.1375C30.1034 13.1375 30.524 13.1814 30.8958 13.2768C31.2682 13.3681 31.5404 13.4983 31.7169 13.6559C31.9342 13.8525 32.0628 14.0767 32.0995 14.3246C32.1418 14.5718 32.0954 14.9262 31.9658 15.39L31.0126 18.8279C30.982 18.9405 30.9762 19.041 30.9928 19.1323C31.0126 19.2194 31.0507 19.2939 31.1179 19.3472L31.0667 19.5213H28.7844ZM29.3369 16.7678C29.0955 16.8648 28.7818 16.9578 28.392 17.0598C27.7798 17.2241 27.4353 17.4432 27.3608 17.7143C27.3092 17.8887 27.33 18.023 27.4153 18.125C27.4993 18.222 27.6453 18.271 27.8511 18.271C28.2283 18.271 28.5313 18.1756 28.7571 17.9873C28.9835 17.7966 29.1528 17.497 29.2713 17.0839C29.2919 16.996 29.3101 16.9329 29.3219 16.8857L29.3369 16.7678Z" fill="#1B3281"/>
<path d="M31.085 21.9512L31.5894 20.126H32.2399C32.4572 20.126 32.6281 20.0831 32.7492 20.0049C32.8721 19.9237 32.9557 19.7868 33.0039 19.6025C33.028 19.5213 33.0428 19.4358 33.0529 19.3388C33.0594 19.236 33.0594 19.1272 33.0529 19.0013L32.7058 13.3548H35.0065L34.9709 17.0963L36.9793 13.3548H39.1188L35.5681 19.4915C35.1651 20.1774 34.8723 20.6487 34.6864 20.9059C34.5029 21.1598 34.3287 21.3572 34.1596 21.4909C33.9405 21.6758 33.6959 21.8068 33.4318 21.8832C33.1671 21.9611 32.7642 22 32.2224 22C32.0665 22 31.8871 21.997 31.6931 21.9868C31.5005 21.9793 31.295 21.9678 31.085 21.9512Z" fill="#1B3281"/>
</svg>
