<svg width="47" height="32" viewBox="0 0 47 32" fill="none" xmlns="http://www.w3.org/2000/svg">
<rect x="0.5" y="0.5" width="45.6667" height="31" rx="3.5" fill="white" stroke="#D9D9D9"/>
<path fill-rule="evenodd" clip-rule="evenodd" d="M30.6102 10.4404C29.8556 10.4404 29.2428 11.05 29.2428 11.8015C29.2428 12.5535 29.8556 13.1618 30.6102 13.1618C31.366 13.1618 31.9784 12.5535 31.9784 11.8015C31.9784 11.05 31.366 10.4404 30.6102 10.4404ZM10.8856 15.0006C10.535 14.9781 9.72267 14.9255 9.72267 14.1983C9.72267 13.3208 10.8914 13.3208 11.33 13.3208C12.1014 13.3208 13.0994 13.5471 13.8131 13.7598C13.8131 13.7598 14.2104 13.8995 14.5485 14.0418L14.5801 14.0506V11.6471L14.5379 11.6343C13.6953 11.3412 12.7173 11.0596 10.9029 11.0596C7.775 11.0596 6.66675 12.8717 6.66675 14.4255C6.66675 15.3202 7.05246 17.428 10.6336 17.6707L10.6369 17.6709C10.9438 17.6896 11.7441 17.7384 11.7441 18.4872C11.7441 19.1078 11.0842 19.473 9.97463 19.473C8.75884 19.473 7.57859 19.1653 6.86227 18.8722V21.3469C7.93498 21.6276 9.14455 21.7664 10.5621 21.7664C13.6193 21.7664 14.9898 20.0516 14.9898 18.3515C14.9898 16.4245 13.4572 15.1721 10.8856 15.0006ZM20.1169 13.9324L20.131 13.8959H23.406C23.3127 14.1925 22.7284 15.9824 21.3961 17.6632C21.3961 17.6632 22.8799 20.2497 23.2189 21.6528H19.7897C19.7897 21.6528 19.38 19.7899 18.5508 18.5522V21.6528H15.6873V11.6233L18.5508 11.0596V16.5934C19.5655 15.3725 20.0176 14.1918 20.1169 13.9324ZM37.225 21.6528V11.5534L40.0001 11.0596V21.6528H37.225ZM27.6586 13.7913C25.095 13.8735 23.7926 15.0184 23.7926 17.2942V21.6529H26.5903V18.0978C26.5903 16.7358 26.7698 16.1519 28.3949 16.0962V13.8315C28.1216 13.7736 27.6586 13.7913 27.6586 13.7913ZM29.2238 21.6528V13.9048H31.9984V21.6528H29.2238ZM33.1742 11.5534L35.9475 11.0596V21.6528H33.1742V11.5534Z" fill="#862165"/>
</svg>
