<svg width="47" height="32" viewBox="0 0 47 32" fill="none" xmlns="http://www.w3.org/2000/svg">
<rect x="0.5" y="0.5" width="45.6667" height="31" rx="3.5" fill="white" stroke="#D9D9D9"/>
<path fill-rule="evenodd" clip-rule="evenodd" d="M25.0739 10.8559L22.7033 11.3647V9.44269L25.0739 8.94336V10.8559ZM15.4404 10.0362L13.136 10.5261L13.1265 18.0727C13.1265 19.467 14.1748 20.494 15.5726 20.494C16.3471 20.494 16.9138 20.3526 17.2254 20.1831V18.2705C16.9232 18.393 15.431 18.8264 15.431 17.432V14.0874H17.2254V12.0807H15.431L15.4404 10.0362ZM9.85886 13.965C9.35831 13.965 9.05608 14.1063 9.05608 14.4737C9.05608 14.8749 9.57621 15.0514 10.2215 15.2703C11.2735 15.6272 12.658 16.097 12.6639 17.8372C12.6639 19.5236 11.3133 20.494 9.34886 20.494C8.53664 20.494 7.64885 20.3338 6.77052 19.957V17.7147C7.56385 18.1481 8.56497 18.4684 9.34886 18.4684C9.87775 18.4684 10.2555 18.3271 10.2555 17.8937C10.2555 17.4493 9.6917 17.2462 9.011 17.001C7.97434 16.6275 6.66663 16.1564 6.66663 14.5868C6.66663 12.9192 7.94163 11.9205 9.85886 11.9205C10.6428 11.9205 11.4172 12.043 12.2011 12.3539V14.5679C11.4833 14.1817 10.5766 13.965 9.85886 13.965ZM37.2572 11.9205C39.4955 11.9205 40.6666 13.8236 40.6666 16.2355C40.6666 16.3657 40.6603 16.5833 40.655 16.7679V16.7681V16.7682C40.6511 16.9041 40.6477 17.0221 40.6477 17.074H36.0294C36.1333 18.1857 36.9455 18.5061 37.8616 18.5061C38.7966 18.5061 39.5333 18.3082 40.1755 17.9879V19.8722C39.5333 20.2302 38.6833 20.4846 37.5594 20.4846C35.2549 20.4846 33.6494 19.0525 33.6494 16.2167C33.6494 13.8236 35.0094 11.9205 37.2572 11.9205ZM37.2477 13.8331C36.6527 13.8331 36.001 14.2759 36.001 15.3405H38.4377C38.4377 14.2759 37.8238 13.8331 37.2477 13.8331ZM20.1628 12.7779L20.0117 12.0807H17.9717V20.3244H20.3328V14.7375C20.89 14.0121 21.8345 14.144 22.1273 14.2476V12.0807C21.825 11.9676 20.72 11.7604 20.1628 12.7779ZM22.7031 12.0807H25.0737V20.3244H22.7031V12.0807ZM30.0037 11.9205C29.0782 11.9205 28.4832 12.3539 28.1526 12.6554L28.0298 12.0713H25.952V23.0566L28.3132 22.5573L28.3226 19.891C28.6626 20.136 29.1632 20.4846 29.9943 20.4846C31.6848 20.4846 33.2243 19.1279 33.2243 16.1413C33.2148 13.4091 31.6565 11.9205 30.0037 11.9205ZM29.437 18.4118C28.8798 18.4118 28.5492 18.214 28.3226 17.969L28.3131 14.4737C28.5587 14.2005 28.8987 14.0121 29.437 14.0121C30.2965 14.0121 30.8915 14.973 30.8915 16.2072C30.8915 17.4697 30.3059 18.4118 29.437 18.4118Z" fill="#6461FC"/>
</svg>
