<svg width="47" height="32" viewBox="0 0 47 32" fill="none" xmlns="http://www.w3.org/2000/svg">
<rect x="0.5" y="0.5" width="45.6667" height="31" rx="3.5" fill="white" stroke="#D9D9D9"/>
<path d="M14.4371 6.66846H21.7914C22.818 6.66846 23.4566 7.50523 23.2171 8.53524L19.7931 23.2357C19.5514 24.2622 18.5236 25.0996 17.4963 25.0996H10.1426C9.11745 25.0996 8.4775 24.2622 8.71699 23.2357L12.1424 8.53524C12.3819 7.50523 13.4092 6.66846 14.4371 6.66846Z" fill="#E21836"/>
<path d="M21.179 6.6665H29.6364C30.6628 6.6665 30.2 7.50327 29.9585 8.53328L26.5351 23.2338C26.2949 24.2602 26.3698 25.0977 25.3412 25.0977H16.8839C15.8553 25.0977 15.2188 24.2602 15.4604 23.2338L18.8837 8.53328C19.1267 7.50327 20.1519 6.6665 21.179 6.6665Z" fill="#00447C"/>
<path d="M29.301 6.6665H36.6554C37.6834 6.6665 38.3219 7.50327 38.0805 8.53328L34.657 23.2338C34.4154 24.2602 33.3868 25.0977 32.359 25.0977H25.008C23.9794 25.0977 23.3414 24.2602 23.5824 23.2338L27.0063 8.53328C27.2458 7.50327 28.2724 6.6665 29.301 6.6665Z" fill="#007B84"/>
<path d="M16.3573 11.3775C15.601 11.3852 15.3777 11.3775 15.3063 11.3607C15.2789 11.491 14.7686 13.8452 14.7671 13.8471C14.6572 14.3234 14.5773 14.6629 14.3057 14.8822C14.1516 15.0096 13.9716 15.0711 13.7629 15.0711C13.4275 15.0711 13.2321 14.9046 13.1993 14.5887L13.1931 14.4803C13.1931 14.4803 13.2952 13.8423 13.2952 13.8387C13.2952 13.8387 13.8309 11.6934 13.9268 11.4098C13.9318 11.3937 13.9332 11.3852 13.9345 11.3775C12.8919 11.3867 12.7071 11.3775 12.6944 11.3607C12.6874 11.3838 12.6616 11.5168 12.6616 11.5168L12.1147 13.9348L12.0677 14.1399L11.9768 14.8106C11.9768 15.0096 12.0159 15.172 12.0937 15.3093C12.3428 15.7448 13.0536 15.81 13.4557 15.81C13.9737 15.81 14.4597 15.6999 14.7881 15.499C15.3581 15.1622 15.5073 14.6357 15.6403 14.1678L15.7019 13.9278C15.7019 13.9278 16.2537 11.6996 16.3474 11.4098C16.351 11.3937 16.3525 11.3852 16.3573 11.3775ZM18.2346 13.175C18.1016 13.175 17.8585 13.2073 17.6402 13.3143C17.561 13.355 17.486 13.4019 17.407 13.4487L17.4783 13.1911L17.4392 13.1478C16.9762 13.2415 16.8726 13.2541 16.4449 13.3143L16.4091 13.3381C16.3594 13.7499 16.3153 14.0595 16.1312 14.8688C16.0611 15.1671 15.9883 15.4682 15.9154 15.7658L15.9351 15.8036C16.3734 15.7805 16.5064 15.7805 16.8873 15.7868L16.9181 15.7532C16.9665 15.5053 16.9728 15.4473 17.08 14.9452C17.1304 14.7071 17.2354 14.184 17.2872 13.9978C17.3824 13.9537 17.4764 13.9103 17.566 13.9103C17.7795 13.9103 17.7535 14.0966 17.7452 14.1708C17.7361 14.2954 17.6583 14.7023 17.5785 15.0516L17.5253 15.2771C17.4882 15.4437 17.4475 15.6055 17.4104 15.7706L17.4265 15.8036C17.8585 15.7805 17.9903 15.7805 18.3592 15.7868L18.4026 15.7532C18.4693 15.3661 18.4888 15.2624 18.6071 14.6987L18.6666 14.4397C18.7822 13.9327 18.8403 13.6757 18.7528 13.4663C18.6603 13.2316 18.4384 13.175 18.2346 13.175ZM20.3318 13.7058C20.1021 13.7499 19.9557 13.7793 19.8101 13.7983C19.6658 13.8214 19.5251 13.8424 19.3032 13.8732L19.2856 13.8891L19.2695 13.9019C19.2464 14.0671 19.2302 14.21 19.1996 14.378C19.1736 14.5517 19.1336 14.749 19.0685 15.0326C19.0182 15.2497 18.9922 15.3253 18.9635 15.4017C18.9355 15.4781 18.9047 15.5523 18.8481 15.7658L18.8613 15.7855L18.8724 15.8036C19.0798 15.7937 19.2155 15.7868 19.355 15.7855C19.4943 15.7805 19.6386 15.7855 19.8619 15.7868L19.8815 15.7708L19.9024 15.7532C19.9347 15.5607 19.9396 15.5089 19.9593 15.415C19.9788 15.3142 20.0125 15.1748 20.0951 14.8023C20.1342 14.6273 20.1778 14.4529 20.2183 14.2744C20.2604 14.0965 20.3045 13.9214 20.3465 13.7465L20.3402 13.7253L20.3318 13.7058ZM20.3367 12.9901C20.128 12.867 19.7618 12.9061 19.5153 13.0762C19.2695 13.2429 19.2416 13.4795 19.4495 13.6043C19.6546 13.724 20.0222 13.6883 20.2666 13.5168C20.5118 13.3465 20.5424 13.112 20.3367 12.9901ZM21.5985 15.8422C22.0207 15.8422 22.4534 15.7259 22.7791 15.3806C23.0297 15.1006 23.1446 14.684 23.1844 14.5125C23.314 13.9439 23.2131 13.6784 23.0864 13.5167C22.8938 13.2702 22.5536 13.1912 22.2007 13.1912C21.9884 13.1912 21.4829 13.2121 21.088 13.5762C20.8044 13.8388 20.6734 14.1952 20.5943 14.5368C20.5146 14.885 20.4228 15.5116 20.9991 15.7449C21.1769 15.8212 21.4333 15.8422 21.5985 15.8422ZM21.5656 14.5628C21.6629 14.1323 21.7778 13.7709 22.0711 13.7709C22.3009 13.7709 22.3175 14.0398 22.2154 14.4718C22.1971 14.5677 22.1132 14.9242 21.9997 15.0761C21.9205 15.1881 21.8267 15.256 21.7231 15.256C21.6923 15.256 21.5089 15.256 21.506 14.9837C21.5046 14.8493 21.532 14.712 21.5656 14.5628ZM24.2397 15.7868L24.2727 15.7533C24.3195 15.5054 24.3272 15.4471 24.4308 14.9452C24.4826 14.7072 24.5898 14.1841 24.6402 13.9978C24.7355 13.9536 24.8279 13.9102 24.9203 13.9102C25.1324 13.9102 25.1066 14.0964 25.0982 14.1706C25.0905 14.2954 25.0127 14.7021 24.9315 15.0515L24.8811 15.277C24.8426 15.4437 24.8006 15.6054 24.7635 15.7707L24.7796 15.8037C25.2131 15.7805 25.3398 15.7805 25.7109 15.7868L25.7557 15.7533C25.8208 15.3659 25.8383 15.2623 25.9602 14.6987L26.0183 14.4395C26.1345 13.9326 26.1933 13.6757 26.1072 13.4663C26.012 13.2317 25.7887 13.1751 25.5877 13.1751C25.4545 13.1751 25.2102 13.2071 24.9931 13.3143C24.9155 13.355 24.8377 13.4018 24.7613 13.4488L24.8279 13.1912L24.7922 13.1476C24.3293 13.2416 24.2236 13.2541 23.7964 13.3143L23.7636 13.3382C23.7118 13.7499 23.6697 14.0593 23.4856 14.8688C23.4155 15.1671 23.3427 15.4683 23.2699 15.7659L23.2895 15.8037C23.7285 15.7805 23.8595 15.7805 24.2397 15.7868ZM27.4243 15.8036C27.4515 15.6706 27.6134 14.8822 27.6148 14.8822C27.6148 14.8822 27.7527 14.3037 27.7611 14.2828C27.7611 14.2828 27.8045 14.2225 27.8479 14.1987H27.9117C28.5138 14.1987 29.1937 14.1987 29.7267 13.8067C30.0893 13.5378 30.3372 13.1407 30.4478 12.6582C30.4765 12.5399 30.4977 12.3991 30.4977 12.2584C30.4977 12.0736 30.4605 11.8908 30.3534 11.7479C30.0816 11.3677 29.5404 11.3607 28.9157 11.3578C28.9137 11.3578 28.6077 11.3607 28.6077 11.3607C27.8081 11.3706 27.4874 11.3677 27.3556 11.3516C27.3445 11.4098 27.3236 11.5134 27.3236 11.5134C27.3236 11.5134 27.0371 12.841 27.0371 12.8432C27.0371 12.8432 26.3516 15.6657 26.3194 15.7987C27.0176 15.7903 27.3038 15.7903 27.4243 15.8036ZM27.9551 13.4453C27.9551 13.4453 28.2596 12.1204 28.2582 12.1254L28.2681 12.0575L28.2724 12.0057L28.3941 12.0182C28.3941 12.0182 29.0222 12.0722 29.0369 12.0736C29.2848 12.1695 29.387 12.4167 29.3156 12.7394C29.2506 13.0342 29.0593 13.2822 28.8135 13.4019C28.6112 13.5034 28.3632 13.5118 28.1078 13.5118H27.9425L27.9551 13.4453ZM29.8513 14.5874C29.7708 14.9305 29.6783 15.5572 30.2518 15.7805C30.4346 15.8583 30.5985 15.8814 30.765 15.873C30.9408 15.8635 31.1038 15.7753 31.2547 15.6484C31.2411 15.7006 31.2275 15.7527 31.2139 15.8051L31.2398 15.8386C31.6523 15.8212 31.7803 15.8212 32.2272 15.8246L32.2677 15.7938C32.333 15.4102 32.3944 15.0377 32.564 14.3038C32.6467 13.9523 32.7291 13.6042 32.8139 13.2541L32.8006 13.2155C32.3392 13.301 32.2159 13.3193 31.7721 13.3822L31.7384 13.4097C31.7339 13.4453 31.7292 13.4796 31.7249 13.5138C31.6559 13.4023 31.5559 13.3071 31.4015 13.2478C31.2042 13.1702 30.7406 13.2702 30.3421 13.633C30.0621 13.892 29.9277 14.247 29.8513 14.5874ZM30.8204 14.6084C30.9192 14.1855 31.0326 13.8277 31.3266 13.8277C31.5125 13.8277 31.6104 13.9992 31.5905 14.2918C31.5747 14.3647 31.5577 14.4416 31.5374 14.5286C31.508 14.6542 31.4761 14.7788 31.4451 14.9036C31.4135 14.9889 31.3768 15.0694 31.3365 15.123C31.2608 15.2302 31.0808 15.2967 30.9772 15.2967C30.9478 15.2967 30.7664 15.2967 30.7602 15.0292C30.7587 14.8961 30.7861 14.7589 30.8204 14.6084ZM35.8809 13.2121L35.8452 13.1714C35.3887 13.2639 35.306 13.2786 34.8866 13.3353L34.8557 13.3661C34.8543 13.3711 34.853 13.3788 34.8509 13.3858L34.8495 13.3788C34.5372 14.0992 34.5463 13.9438 34.2921 14.511C34.2907 14.4852 34.2907 14.4691 34.2893 14.4416L34.2256 13.2121L34.1857 13.1714C33.7074 13.2639 33.6961 13.2786 33.2544 13.3353L33.22 13.3661C33.2152 13.3808 33.2152 13.3969 33.2123 13.4145L33.2152 13.4208C33.2704 13.7029 33.2571 13.64 33.3125 14.0853C33.3383 14.3038 33.3727 14.5235 33.3985 14.7394C33.4421 15.1006 33.4665 15.2784 33.5197 15.8296C33.2214 16.3219 33.1508 16.5081 32.8636 16.9401L32.8656 16.9444L32.6634 17.2642C32.6403 17.2979 32.6193 17.321 32.5899 17.3309C32.5577 17.3468 32.5157 17.3497 32.4575 17.3497H32.3454L32.1789 17.9036L32.7502 17.9135C33.0856 17.912 33.2964 17.7552 33.4098 17.5444L33.7691 16.9288H33.7633L33.8012 16.8854C34.0428 16.3652 35.8809 13.2121 35.8809 13.2121ZM29.8513 20.4868H29.609L30.506 17.5199H30.8035L30.898 17.2143L30.9071 17.5542C30.896 17.7642 31.0613 17.9505 31.4955 17.9197H31.9975L32.1704 17.3484H31.9814C31.8728 17.3484 31.8224 17.3209 31.8287 17.2621L31.8195 16.9164H30.8897V16.9181C30.5891 16.9244 29.6914 16.947 29.5096 16.9954C29.2897 17.0521 29.0579 17.2188 29.0579 17.2188L29.149 16.9128H28.2792L28.098 17.5199L27.189 20.5321H27.0126L26.8396 21.0993H28.572L28.5139 21.2884H29.3675L29.4241 21.0993H29.6636L29.8513 20.4868ZM29.1406 18.1228C29.0013 18.1613 28.7421 18.2782 28.7421 18.2782L28.9726 17.5199H29.6636L29.4969 18.0724C29.4969 18.0724 29.2834 18.0849 29.1406 18.1228ZM29.1538 19.206C29.1538 19.206 28.9367 19.2332 28.7939 19.2655C28.6532 19.3082 28.3893 19.4426 28.3893 19.4426L28.6273 18.6535H29.322L29.1538 19.206ZM28.7666 20.4938H28.0734L28.2744 19.8278H28.9654L28.7666 20.4938ZM30.436 18.6535H31.4351L31.2916 19.1185H30.2791L30.1271 19.6269H31.013L30.3422 20.5714C30.2953 20.6408 30.2531 20.6653 30.2063 20.6849C30.1594 20.7087 30.0977 20.7367 30.0264 20.7367H29.7806L29.6117 21.2934H30.2546C30.5887 21.2934 30.7861 21.1414 30.9318 20.9419L31.3918 20.3124L31.4905 20.9516C31.5115 21.0713 31.5976 21.1414 31.6558 21.1687C31.7202 21.201 31.7867 21.2563 31.8806 21.2646C31.9813 21.2689 32.0541 21.2723 32.1025 21.2723H32.4184L32.608 20.6492H32.4834C32.4119 20.6492 32.2888 20.6372 32.2678 20.6148C32.2468 20.5875 32.2468 20.5456 32.2355 20.4818L32.1353 19.8411H31.725L31.905 19.6269H32.9155L33.0709 19.1185H32.1353L32.2811 18.6535H33.2137L33.3867 18.0801H30.6061L30.436 18.6535ZM21.9969 20.6233L22.2301 19.8474H23.1886L23.3637 19.2704H22.4043L22.5508 18.7929H23.4883L23.662 18.2341H21.3162L21.1461 18.7929H21.6791L21.5369 19.2704H21.0025L20.8254 19.8573H21.3582L21.0474 20.8837C21.0054 21.0196 21.0671 21.0714 21.1062 21.1345C21.1461 21.196 21.1866 21.2367 21.2777 21.2598C21.3716 21.2808 21.436 21.2933 21.5235 21.2933H22.604L22.7965 20.6541L22.3176 20.7199C22.2251 20.7199 21.9689 20.7088 21.9969 20.6233ZM22.1068 16.9093L21.8639 17.3483C21.8119 17.4442 21.7652 17.5037 21.723 17.5311C21.6859 17.5542 21.6124 17.5639 21.506 17.5639H21.3792L21.2098 18.1255H21.6307C21.8331 18.1255 21.9885 18.0513 22.0627 18.0142C22.1425 17.9716 22.1635 17.9959 22.2251 17.9364L22.3673 17.8133H23.6816L23.856 17.2285H22.8939L23.0619 16.9093H22.1068ZM24.0472 20.6345C24.0248 20.6023 24.0409 20.5454 24.0751 20.4271L24.4344 19.2381H25.7123C25.8985 19.2354 26.033 19.2333 26.1205 19.227C26.2144 19.2172 26.3166 19.1836 26.4279 19.1234C26.5428 19.0603 26.6016 18.9938 26.6512 18.9174C26.7066 18.8413 26.7955 18.6745 26.8719 18.4175L27.3234 16.9128L25.9973 16.9205C25.9973 16.9205 25.589 16.9807 25.4092 17.0472C25.2278 17.1215 24.9686 17.3287 24.9686 17.3287L25.0883 16.9162H24.2691L23.1222 20.7199C23.0815 20.8676 23.0543 20.9748 23.048 21.0391C23.0458 21.1085 23.1355 21.1771 23.1935 21.229C23.2622 21.2808 23.3637 21.2723 23.461 21.2808C23.5634 21.2885 23.7089 21.2933 23.9099 21.2933H24.5394L24.7326 20.6408L24.1691 20.694C24.1088 20.694 24.0653 20.6618 24.0472 20.6345ZM24.6661 18.4351H26.0084L25.9231 18.7025C25.9111 18.7088 25.8824 18.6892 25.7458 18.7054H24.5835L24.6661 18.4351ZM24.935 17.5381H26.2886L26.1913 17.8602C26.1913 17.8602 25.5533 17.8539 25.4511 17.8727C25.0015 17.9505 24.7389 18.1907 24.7389 18.1907L24.935 17.5381ZM25.9531 19.5981C25.942 19.6381 25.9245 19.6625 25.8999 19.6808C25.8727 19.6983 25.8286 19.7046 25.7628 19.7046H25.5715L25.5828 19.3789H24.7872L24.755 20.9712C24.7537 21.0861 24.7648 21.1526 24.8489 21.2059C24.933 21.2724 25.192 21.2808 25.5407 21.2808H26.0392L26.2192 20.6848L25.7852 20.7086L25.6409 20.717C25.6212 20.7086 25.6023 20.7009 25.5814 20.6799C25.5631 20.6618 25.5322 20.6729 25.5373 20.558L25.5407 20.1499L25.9958 20.1311C26.2416 20.1311 26.3466 20.0511 26.4362 19.9749C26.5217 19.902 26.5497 19.8181 26.582 19.7046L26.6583 19.3432H26.0329L25.9531 19.5981Z" fill="#FEFEFE"/>
</svg>
