<svg width="47" height="32" viewBox="0 0 47 32" fill="none" xmlns="http://www.w3.org/2000/svg">
<rect x="0.5" y="0.5" width="45.6667" height="31" rx="3.5" fill="white" stroke="#D9D9D9"/>
<path fill-rule="evenodd" clip-rule="evenodd" d="M14.167 21.6778H11.3399L9.21994 13.59C9.11932 13.218 8.90566 12.8891 8.59139 12.734C7.80708 12.3445 6.94282 12.0344 6 11.8781V11.5667H10.5542C11.1828 11.5667 11.6542 12.0344 11.7328 12.5777L12.8327 18.4117L15.6584 11.5667H18.407L14.167 21.6778ZM19.9783 21.6778H17.3084L19.5069 11.5667H22.1769L19.9783 21.6778ZM25.6312 14.3678C25.7097 13.8232 26.1811 13.5118 26.7311 13.5118C27.5954 13.4336 28.5368 13.59 29.3225 13.9782L29.7939 11.8012C29.0082 11.4899 28.144 11.3335 27.3597 11.3335C24.7683 11.3335 22.8826 12.734 22.8826 14.6778C22.8826 16.1565 24.2183 16.933 25.1611 17.4007C26.1811 17.8671 26.574 18.1785 26.4954 18.6449C26.4954 19.3445 25.7097 19.6559 24.9254 19.6559C23.9826 19.6559 23.0398 19.4227 22.1769 19.0331L21.7055 21.2114C22.6483 21.5997 23.6683 21.756 24.6111 21.756C27.5168 21.8329 29.3225 20.4337 29.3225 18.3335C29.3225 15.6888 25.6312 15.5338 25.6312 14.3678ZM38.6667 21.6778L36.5467 11.5667H34.2696C33.7982 11.5667 33.3267 11.8781 33.1696 12.3445L29.2439 21.6778H31.9925L32.5411 20.2004H35.9181L36.2324 21.6778H38.6667ZM34.6624 14.2896L35.4467 18.1003H33.2482L34.6624 14.2896Z" fill="#172B85"/>
</svg>
