<svg width="47" height="32" viewBox="0 0 47 32" fill="none" xmlns="http://www.w3.org/2000/svg">
<rect x="0.5" y="0.5" width="45.6667" height="31" rx="3.5" fill="white" stroke="#D9D9D9"/>
<path d="M20.8492 18.4743C20.7559 18.5225 20.6509 18.5504 20.5393 18.5504C20.2809 18.5504 20.0563 18.4049 19.9384 18.1895L19.8932 18.0884L18.012 13.8622C17.9917 13.8163 17.9791 13.7643 17.9791 13.7137C17.9791 13.5189 18.1334 13.3611 18.3237 13.3611C18.4008 13.3611 18.4723 13.3873 18.5297 13.431L20.7497 15.0492C20.9119 15.1577 21.1057 15.2214 21.314 15.2214C21.4383 15.2214 21.5568 15.1977 21.6674 15.1565L32.1071 10.3999C30.2358 8.14212 27.1539 6.6665 23.6664 6.6665C17.9593 6.6665 13.3333 10.6133 13.3333 15.4822C13.3333 18.1383 14.7251 20.5294 16.9037 22.1455C17.0784 22.2733 17.1928 22.4831 17.1928 22.72C17.1928 22.7983 17.1764 22.8698 17.1564 22.9445C16.9824 23.6089 16.7039 24.673 16.691 24.7229C16.6692 24.8063 16.6354 24.8934 16.6354 24.9806C16.6354 25.1754 16.7895 25.3332 16.98 25.3332C17.0547 25.3332 17.1158 25.3047 17.1789 25.2676L19.4411 23.9304C19.6112 23.83 19.7914 23.7676 19.9899 23.7676C20.0955 23.7676 20.1975 23.7844 20.2935 23.8144C21.3488 24.1252 22.4874 24.2978 23.6665 24.2978C29.3732 24.2978 33.9999 20.3509 33.9999 15.4822C33.9999 14.0074 33.573 12.6186 32.8228 11.3969L20.9249 18.4296L20.8492 18.4743Z" fill="#1AAD19"/>
</svg>
