<svg width="24" height="24" viewBox="0 0 24 24" fill="none" xmlns="http://www.w3.org/2000/svg">
<path fill-rule="evenodd" clip-rule="evenodd" d="M17.49 9.03035C16.0571 4.92085 11.8448 2.38597 7.4829 3.12888C2.8746 3.91377 -0.365052 8.09579 0.025495 12.753C0.117798 14.1388 0.668761 16.1709 2.04114 17.8809C3.44931 19.6355 5.68722 21.0011 9.00002 21.0011H18C21.3137 21.0011 24 18.3148 24 15.0011C24 12.7932 22.9167 11.2456 21.4501 10.2921C20.2557 9.51567 18.8182 9.13333 17.49 9.03035ZM15.7718 10.2511C14.8622 6.72827 11.4054 4.48959 7.81871 5.10049C4.23199 5.71138 1.71125 8.96815 2.01914 12.5935L2.02061 12.6131C2.08937 13.6681 2.5277 15.2918 3.60092 16.6291C4.64162 17.9258 6.31281 19.0011 9.00002 19.0011H18C20.2091 19.0011 22 17.2102 22 15.0011C22 13.5541 21.3333 12.6017 20.3599 11.9689C19.3434 11.3081 17.9824 11.0011 16.74 11.0011C16.284 11.0011 15.8858 10.6926 15.7718 10.2511Z" fill="#192839"/>
</svg>
