<svg width="24" height="24" viewBox="0 0 24 24" fill="none" xmlns="http://www.w3.org/2000/svg">
<path fill-rule="evenodd" clip-rule="evenodd" d="M20.1328 3.38509C18.6196 2.03085 16.4579 1.61269 14.5255 2.35025C12.3887 3.16583 10.9844 5.22202 10.9997 7.50656C8.13297 7.29145 5.48995 5.80559 3.81836 3.42534C3.61131 3.13053 3.2617 2.96986 2.90314 3.00476C2.54458 3.03965 2.2325 3.26471 2.08619 3.59392L3 4.00005C2.08619 3.59392 2.08597 3.5944 2.08575 3.59491L2.08521 3.59612L2.08387 3.59916L2.08013 3.60772L2.06856 3.63465C2.05909 3.6569 2.04621 3.68771 2.03044 3.72664C1.99891 3.80447 1.95577 3.91494 1.90528 4.05459C1.80442 4.33356 1.67358 4.73083 1.54748 5.21842C1.29648 6.18895 1.05771 7.54234 1.12603 9.04546C1.19455 10.553 1.57342 12.2317 2.57706 13.8164C3.32942 15.0043 4.41158 16.1055 5.91473 17.033C4.39637 17.7325 2.72656 18.0679 1.03974 18.0008C0.577024 17.9824 0.162198 18.2841 0.0371489 18.73C-0.0878996 19.1759 0.109546 19.6493 0.514357 19.8742C5.29087 22.5278 10.6509 22.5526 14.8448 20.3203C19.0631 18.0751 22 13.6 22 7.50005L22 7.49675C21.9995 7.33449 21.9917 7.17243 21.9769 7.01103C22.9425 5.93962 23.6291 4.6432 23.9716 3.23667C24.0702 2.83167 23.9073 2.40797 23.5627 2.17341C23.2181 1.93885 22.7642 1.94262 22.4236 2.18289C21.7152 2.68259 20.9449 3.08658 20.1328 3.38509ZM3.4046 6.04386C3.22093 6.8452 3.07427 7.86138 3.12397 8.95465C3.18045 10.1972 3.48908 11.5184 4.26669 12.7463C5.04029 13.9677 6.31604 15.1573 8.40614 16.0862C8.73794 16.2337 8.96374 16.5494 8.99604 16.9111C9.02833 17.2728 8.86205 17.6235 8.56163 17.8274C7.45069 18.5815 6.2342 19.1489 4.9601 19.5157C8.13027 20.3234 11.307 19.9377 13.9052 18.5548C17.4365 16.6752 19.9995 12.9009 20 7.50172C19.9992 7.28562 19.9784 7.07007 19.9378 6.85781C19.8751 6.52994 19.9802 6.19243 20.2178 5.95805C20.4406 5.73836 20.6469 5.50422 20.8357 5.25756C20.6092 5.34111 20.38 5.41784 20.1483 5.48759C19.7717 5.601 19.3636 5.48309 19.1054 5.18629C18.1472 4.08445 16.6029 3.69806 15.2387 4.21877C13.8744 4.73948 12.9803 6.05653 12.9999 7.51665L13.0001 7.53006H13V8.53006C13 9.07224 12.5679 9.51567 12.0259 9.52972C8.76545 9.61426 5.65045 8.33089 3.4046 6.04386Z" fill="#192839"/>
</svg>
